<svg width="141" height="136" viewBox="0 0 141 136" fill="none" xmlns="http://www.w3.org/2000/svg">
<g id="e-commerce-icon 1" clip-path="url(#clip0_63_366)">
<g id="Circle">
<g id="Group">
<path id="Vector" d="M70.5002 134.437C32.5201 134.437 1.62085 104.633 1.62085 68.0002C1.62085 31.3667 32.5201 1.56299 70.5002 1.56299C108.48 1.56299 139.379 31.3667 139.379 68.0002C139.379 104.633 108.48 134.437 70.5002 134.437Z" stroke="#231F20" stroke-width="3.67318"/>
</g>
</g>
<g id="Icons">
<g id="Group_2">
<path id="Vector_2" d="M98.5744 53.3604V48.5503L92.7204 48.079C92.3096 46.0007 91.5179 44.0545 90.4118 42.3107L94.3217 37.8547L89.6655 33.362L85.1826 37.0215C83.4258 35.8694 81.4469 35.0136 79.3206 34.5212L78.8182 28.6997H72.2317L71.7439 34.3469C69.59 34.7424 67.5706 35.506 65.7635 36.5737L61.1429 32.8016L56.4851 37.2935L60.2799 41.6174C59.0855 43.3112 58.1981 45.2199 57.6868 47.2708L51.6522 47.7562L51.6514 53.3604" stroke="#282D33" stroke-width="3.67318"/>
<path id="Vector_3" d="M66.003 53.3616C65.8466 52.7082 65.7559 52.0305 65.7559 51.3302C65.7559 46.345 69.9453 42.3057 75.1121 42.3057C80.2797 42.3057 84.4691 46.345 84.4691 51.3302C84.4691 52.0305 84.3792 52.7082 84.222 53.3616" stroke="#282D33" stroke-width="3.67318"/>
<g id="Group_3">
<path id="Vector_4" d="M49.7011 105.614C54.0029 105.614 57.4902 102.25 57.4902 98.1012C57.4902 93.952 54.0029 90.5884 49.7011 90.5884C45.3994 90.5884 41.9121 93.952 41.9121 98.1012C41.9121 102.25 45.3994 105.614 49.7011 105.614Z" stroke="#282D33" stroke-width="3.67318"/>
<path id="Vector_5" d="M96.1187 98.1012C96.1187 102.249 92.6342 105.614 88.3296 105.614C84.0259 105.614 80.5422 102.248 80.5422 98.1012C80.5422 93.9524 84.0267 90.5884 88.3296 90.5884C92.6342 90.5876 96.1187 93.9524 96.1187 98.1012Z" stroke="#282D33" stroke-width="3.67318"/>
<path id="Vector_6" d="M58.5925 98.1011H80.5423" stroke="#282D33" stroke-width="3.67318"/>
<path id="Vector_7" d="M30.5107 45.1353L40.978 48.0171L53.1931 83.3546L50.9379 90.368" stroke="#282D33" stroke-width="3.67318"/>
<path id="Vector_8" d="M99.5467 81.0733C99.5467 82.402 98.4316 83.3548 97.0532 83.3548H53.1933L44.7188 57.2349H106.61L99.5467 81.0733Z" stroke="#282D33" stroke-width="3.67318"/>
<path id="Vector_9" d="M55.7764 65.8979H95.9654" stroke="#282D33" stroke-width="3.67318"/>
<path id="Vector_10" d="M58.5796 74.3115H93.3166" stroke="#282D33" stroke-width="3.67318"/>
</g>
</g>
</g>
</g>
<defs>
<clipPath id="clip0_63_366">
<rect width="141" height="136" fill="white"/>
</clipPath>
</defs>
</svg>
