<svg width="179" height="187" viewBox="0 0 179 187" fill="none" xmlns="http://www.w3.org/2000/svg">
<g id="data-icon 1">
<path id="Vector" d="M161.064 129.93H17.936C17.1764 129.93 16.448 129.616 15.9109 129.058C15.3738 128.499 15.072 127.742 15.072 126.952V18.856C15.072 18.066 15.3738 17.3084 15.9109 16.7498C16.448 16.1913 17.1764 15.8774 17.936 15.8774H161.064C161.824 15.8774 162.552 16.1913 163.09 16.7498C163.627 17.3084 163.928 18.066 163.928 18.856V126.952C163.928 127.742 163.627 128.499 163.09 129.058C162.552 129.616 161.824 129.93 161.064 129.93ZM20.8 123.973H158.2V21.8346H20.8V123.973Z" fill="black"/>
<path id="Vector_2" d="M161.064 113.569H17.936C17.1764 113.569 16.448 113.255 15.9109 112.697C15.3738 112.138 15.072 111.38 15.072 110.59C15.072 109.8 15.3738 109.043 15.9109 108.484C16.448 107.926 17.1764 107.612 17.936 107.612H161.064C161.824 107.612 162.552 107.926 163.09 108.484C163.627 109.043 163.928 109.8 163.928 110.59C163.928 111.38 163.627 112.138 163.09 112.697C162.552 113.255 161.824 113.569 161.064 113.569Z" fill="black"/>
<path id="Vector_3" d="M89.5001 160.793C83.7921 160.786 78.1085 160.018 72.5882 158.508C72.1374 158.386 71.7221 158.152 71.3783 157.825C71.0344 157.498 70.7724 157.089 70.6149 156.633C70.4574 156.177 70.4093 155.688 70.4746 155.208C70.5399 154.729 70.7167 154.273 70.9897 153.88C79.7016 141.35 78.9391 127.295 78.9212 127.153C78.883 126.374 79.1408 125.609 79.6391 125.025C80.1374 124.441 80.8363 124.084 81.5854 124.03C82.3345 123.977 83.0738 124.232 83.6442 124.739C84.2145 125.247 84.5703 125.968 84.6349 126.746C84.676 127.349 85.4493 140.468 77.9599 153.672C85.5815 155.219 93.4187 155.219 101.04 153.672C93.5508 140.468 94.3241 127.349 94.3653 126.746C94.3873 126.352 94.4841 125.967 94.6502 125.613C94.8162 125.259 95.0482 124.942 95.3327 124.682C95.6173 124.422 95.9486 124.223 96.3076 124.097C96.6666 123.971 97.0461 123.92 97.4241 123.947C97.8021 123.975 98.1711 124.08 98.5097 124.257C98.8484 124.434 99.1499 124.679 99.3968 124.977C99.6438 125.276 99.8312 125.623 99.9483 125.998C100.065 126.373 100.11 126.768 100.079 127.161C100.07 127.295 99.2985 141.35 108.01 153.88C108.283 154.273 108.46 154.729 108.526 155.208C108.591 155.688 108.543 156.177 108.385 156.633C108.228 157.089 107.966 157.498 107.622 157.825C107.278 158.152 106.863 158.386 106.412 158.508C100.892 160.018 95.2081 160.786 89.5001 160.793Z" fill="black"/>
<path id="Vector_4" d="M89.4997 170.763C81.706 170.763 74.3384 169.562 68.75 167.38C60.4569 164.143 58.7117 159.885 58.7117 156.883C58.7117 150.937 65.6819 146.134 77.3563 144.038C78.1054 143.902 78.8756 144.082 79.4973 144.537C80.119 144.993 80.5413 145.686 80.6714 146.465C80.8015 147.244 80.6286 148.045 80.1909 148.692C79.7531 149.338 79.0864 149.778 78.3372 149.913C68.7536 151.629 64.4397 155.023 64.4397 156.883C64.4397 159.573 73.2823 164.806 89.4997 164.806C105.717 164.806 114.56 159.573 114.56 156.883C114.56 155.021 110.251 151.629 100.667 149.907C99.9267 149.764 99.2699 149.323 98.8395 148.68C98.4091 148.037 98.2397 147.244 98.368 146.471C98.4963 145.699 98.9121 145.011 99.5251 144.555C100.138 144.1 100.899 143.914 101.643 144.038C113.307 146.134 120.288 150.937 120.288 156.883C120.288 159.885 118.548 164.143 110.255 167.38C104.661 169.562 97.2933 170.763 89.4997 170.763Z" fill="black"/>
<path id="Vector_5" d="M146.313 92.6616H135.46C134.701 92.6616 133.972 92.3478 133.435 91.7892C132.898 91.2306 132.596 90.473 132.596 89.683V39.7642C132.596 38.9742 132.898 38.2166 133.435 37.658C133.972 37.0995 134.701 36.7856 135.46 36.7856H146.313C147.073 36.7856 147.801 37.0995 148.338 37.658C148.875 38.2166 149.177 38.9742 149.177 39.7642V89.683C149.177 90.473 148.875 91.2306 148.338 91.7892C147.801 92.3478 147.073 92.6616 146.313 92.6616ZM138.324 86.7044H143.449V42.7428H138.324V86.7044Z" fill="black"/>
<path id="Vector_6" d="M120.739 92.6612H109.887C109.127 92.6612 108.399 92.3474 107.862 91.7888C107.324 91.2302 107.023 90.4726 107.023 89.6826V49.0718C107.023 48.2819 107.324 47.5243 107.862 46.9657C108.399 46.4071 109.127 46.0933 109.887 46.0933H120.739C121.499 46.0933 122.228 46.4071 122.765 46.9657C123.302 47.5243 123.603 48.2819 123.603 49.0718V89.6826C123.603 90.4726 123.302 91.2302 122.765 91.7888C122.228 92.3474 121.499 92.6612 120.739 92.6612ZM112.751 86.7041H117.875V52.0504H112.751V86.7041Z" fill="black"/>
<path id="Vector_7" d="M95.1654 92.6611H84.3091C83.5495 92.6611 82.821 92.3473 82.2839 91.7887C81.7468 91.2301 81.4451 90.4725 81.4451 89.6825V56.5181C81.4451 55.7281 81.7468 54.9705 82.2839 54.4119C82.821 53.8534 83.5495 53.5396 84.3091 53.5396H95.1636C95.9232 53.5396 96.6517 53.8534 97.1888 54.4119C97.7259 54.9705 98.0276 55.7281 98.0276 56.5181V89.6825C98.0276 90.4722 97.7261 91.2295 97.1894 91.788C96.6527 92.3465 95.9247 92.6606 95.1654 92.6611ZM87.1749 86.704H92.3014V59.4967H87.1731L87.1749 86.704Z" fill="black"/>
<path id="Vector_8" d="M56.7231 85.1925H45.4461C44.6865 85.1925 43.9581 84.8787 43.421 84.3201C42.8839 83.7615 42.5821 83.0039 42.5821 82.214V78.7626C40.9366 78.0264 39.3849 77.0816 37.9621 75.9497L35.2664 77.5674C34.6088 77.9621 33.8275 78.0691 33.0941 77.8649C32.3607 77.6607 31.7352 77.162 31.3552 76.4784L25.7239 66.3271C25.5358 65.9882 25.4137 65.6142 25.3646 65.2263C25.3155 64.8384 25.3404 64.4442 25.4378 64.0663C25.5352 63.6884 25.7032 63.3342 25.9323 63.0238C26.1614 62.7135 26.447 62.4531 26.7728 62.2576L29.6189 60.5487C29.5359 59.7411 29.4941 58.9296 29.4936 58.1174C29.4938 57.1733 29.5506 56.2301 29.6637 55.2934L26.8498 53.5956C26.5241 53.3999 26.2387 53.1394 26.0098 52.829C25.7809 52.5186 25.613 52.1643 25.5158 51.7864C25.4185 51.4085 25.3938 51.0144 25.443 50.6266C25.4923 50.2388 25.6145 49.8648 25.8027 49.5261L31.4376 39.3748C31.6257 39.0361 31.8762 38.7392 32.1747 38.5012C32.4732 38.2631 32.8138 38.0885 33.1772 37.9874C33.5405 37.8863 33.9195 37.8606 34.2924 37.9118C34.6653 37.963 35.0249 38.0901 35.3505 38.2858L38.2754 40.0413C39.6111 39.0124 41.0584 38.1501 42.5875 37.4723V34.0171C42.5875 33.2272 42.8892 32.4696 43.4263 31.911C43.9634 31.3524 44.6919 31.0386 45.4515 31.0386H56.7285C57.4881 31.0386 58.2165 31.3524 58.7537 31.911C59.2908 32.4696 59.5925 33.2272 59.5925 34.0171V37.4723C61.1018 38.1422 62.5314 38.9918 63.8527 40.004L66.91 38.1685C67.2357 37.9728 67.5953 37.8457 67.9682 37.7945C68.3411 37.7433 68.72 37.769 69.0834 37.8701C69.4467 37.9712 69.7874 38.1458 70.0859 38.3839C70.3843 38.6219 70.6348 38.9188 70.823 39.2575L76.4597 49.4107C76.6478 49.7495 76.7699 50.1236 76.819 50.5115C76.8681 50.8994 76.8432 51.2935 76.7458 51.6714C76.6484 52.0493 76.4804 52.4036 76.2513 52.7139C76.0222 53.0243 75.7366 53.2846 75.4107 53.4802L72.4948 55.2115C72.7191 57.0081 72.7348 58.8263 72.5414 60.6268L75.468 62.3823C75.7937 62.578 76.0792 62.8385 76.3081 63.1489C76.537 63.4593 76.7048 63.8136 76.8021 64.1915C76.8993 64.5694 76.924 64.9635 76.8748 65.3513C76.8256 65.7391 76.7034 66.1131 76.5152 66.4518L70.8838 76.6031C70.6958 76.942 70.4455 77.239 70.1471 77.4773C69.8486 77.7155 69.508 77.8903 69.1446 77.9916C68.7813 78.0929 68.4023 78.1188 68.0293 78.0677C67.6563 78.0166 67.2967 77.8896 66.9709 77.694L64.1498 76.0074C62.7423 77.1178 61.2101 78.0461 59.5871 78.7719V82.2233C59.5848 83.0116 59.282 83.7668 58.7451 84.3234C58.2083 84.88 57.4812 85.1925 56.7231 85.1925ZM48.3101 79.2354H53.8591V76.6962C53.8589 76.0621 54.0532 75.4445 54.4137 74.9333C54.7743 74.422 55.2823 74.0437 55.8639 73.8535C58.1097 73.1135 60.1694 71.8641 61.8944 70.1955C62.343 69.7611 62.9136 69.4878 63.5226 69.4157C64.1315 69.3437 64.7467 69.4767 65.2775 69.7952L67.3575 71.0462L70.1302 66.0534L67.9822 64.7596C67.4575 64.4444 67.0424 63.9643 66.7967 63.3883C66.551 62.8122 66.4872 62.17 66.6147 61.5539C67.0993 59.1787 67.0761 56.7218 66.5466 54.357C66.4064 53.7339 66.4628 53.0805 66.7075 52.4934C66.9522 51.9063 67.3722 51.4168 67.9053 51.0973L70.0676 49.7942L67.2895 44.807L65.0073 46.1771C64.4844 46.4911 63.8796 46.6253 63.2791 46.5604C62.6786 46.4956 62.1131 46.235 61.6635 45.816C59.9905 44.2491 58.0124 43.0757 55.8639 42.3757C55.2823 42.1855 54.7743 41.8072 54.4137 41.296C54.0532 40.7847 53.8589 40.1671 53.8591 39.5331V36.9957H48.3101V39.5331C48.3104 40.1671 48.1161 40.7847 47.7555 41.296C47.395 41.8072 46.8869 42.1855 46.3053 42.3757C44.1368 43.0833 42.1416 44.2716 40.4574 45.8588C40.0086 46.2808 39.4427 46.5442 38.841 46.6111C38.2394 46.678 37.6328 46.5449 37.1083 46.2311L34.9603 44.9373L32.1858 49.9264L34.2622 51.1736C34.7915 51.492 35.2089 51.9782 35.4533 52.561C35.6978 53.1439 35.7565 53.7928 35.6208 54.4128C35.1101 56.7385 35.0875 59.1513 35.5546 61.4869C35.6805 62.1017 35.6163 62.7421 35.3709 63.3166C35.1256 63.8911 34.7118 64.3701 34.1888 64.6851L32.1196 65.9268L34.8923 70.9196L36.8488 69.745C37.3813 69.4252 37.9987 69.2922 38.6096 69.3656C39.2205 69.439 39.7924 69.715 40.2408 70.1526C41.9746 71.8418 44.0498 73.1063 46.3143 73.8535C46.8959 74.0437 47.4039 74.422 47.7645 74.9333C48.1251 75.4445 48.3193 76.0621 48.3191 76.6962L48.3101 79.2354Z" fill="black"/>
<path id="Vector_9" d="M51.1245 68.574C49.1351 68.5744 47.1902 67.9611 45.5359 66.8119C43.8816 65.6626 42.5922 64.029 41.8307 62.1175C41.0692 60.2061 40.8698 58.1027 41.2579 56.0734C41.6459 54.0441 42.6039 52.1801 44.0106 50.7171C45.4174 49.2541 47.2097 48.2578 49.1609 47.8542C51.1122 47.4507 53.1346 47.658 54.9726 48.4499C56.8105 49.2419 58.3813 50.5829 59.4864 52.3034C60.5914 54.0238 61.1811 56.0465 61.1807 58.1155C61.1774 60.8882 60.1168 63.5464 58.2317 65.507C56.3465 67.4676 53.7906 68.5705 51.1245 68.574ZM51.1245 53.6123C50.268 53.6119 49.4307 53.8757 48.7184 54.3703C48.0061 54.8649 47.4508 55.5681 47.1228 56.3909C46.7948 57.2137 46.7088 58.1192 46.8757 58.9929C47.0426 59.8666 47.4548 60.6691 48.0603 61.2991C48.6658 61.9291 49.4373 62.3582 50.2773 62.5321C51.1173 62.706 51.988 62.6169 52.7793 62.2761C53.5706 61.9353 54.247 61.3582 54.7229 60.6176C55.1987 59.877 55.4527 59.0062 55.4527 58.1155C55.4513 56.922 54.9949 55.7777 54.1836 54.9336C53.3722 54.0894 52.2721 53.6143 51.1245 53.6123Z" fill="black"/>
<path id="Vector_10" d="M73.6766 98.4083H28.5686C27.809 98.4083 27.0805 98.0945 26.5434 97.5359C26.0063 96.9773 25.7046 96.2197 25.7046 95.4297C25.7046 94.6398 26.0063 93.8822 26.5434 93.3236C27.0805 92.765 27.809 92.4512 28.5686 92.4512H73.6766C74.4362 92.4512 75.1646 92.765 75.7017 93.3236C76.2388 93.8822 76.5406 94.6398 76.5406 95.4297C76.5406 96.2197 76.2388 96.9773 75.7017 97.5359C75.1646 98.0945 74.4362 98.4083 73.6766 98.4083Z" fill="black"/>
</g>
</svg>
