<svg width="172" height="160" viewBox="0 0 172 160" fill="none" xmlns="http://www.w3.org/2000/svg">
<g id="web3-icon 1" clip-path="url(#clip0_63_297)">
<g id="Page-1">
<g id="block-network">
<path id="Shape" d="M61.0157 144.491C60.9874 146.722 60.3814 148.905 59.2614 150.809C56.7198 155.214 51.878 157.595 46.9914 156.842C42.1047 156.089 38.1345 152.351 36.9303 147.368C36.118 144.088 36.6131 140.605 38.3035 137.709C39.4049 135.813 40.9471 134.235 42.7883 133.12C43.1435 132.914 43.5098 132.729 43.8854 132.565L43.9736 132.567C44.1143 132.508 44.2551 132.442 44.3956 132.391C44.5361 132.339 44.5954 132.31 44.7137 132.274C44.8319 132.237 44.9874 132.171 45.1351 132.128C45.2829 132.084 45.5417 131.997 45.7632 131.94C45.9847 131.882 45.9847 131.882 46.088 131.861C46.1913 131.84 46.2947 131.811 46.398 131.79L46.4789 131.791C46.5205 131.788 46.5624 131.788 46.6038 131.793L46.7288 131.796C46.8832 131.798 47.068 131.74 47.2596 131.713L47.4802 131.717C47.664 131.72 47.8411 131.677 48.0325 131.665C49.1354 131.592 50.2428 131.677 51.3231 131.92C51.8448 132.032 52.3585 132.181 52.8603 132.367C53.3607 132.556 53.8485 132.779 54.3206 133.034C54.5614 133.153 54.8092 133.295 55.0495 133.444C55.4935 133.719 55.9186 134.025 56.322 134.361C56.489 134.494 56.6849 134.665 56.8734 134.837C57.0619 135.008 57.25 135.203 57.4309 135.389C57.6118 135.576 57.7129 135.692 57.8572 135.871C57.9133 135.922 57.9642 135.979 58.0089 136.042C58.1099 136.166 58.2109 136.29 58.3044 136.421C58.454 136.607 58.5934 136.801 58.7218 137.002C58.8454 137.169 58.958 137.345 59.0591 137.528L59.1093 137.613C59.2097 137.775 59.3027 137.938 59.3883 138.107C59.5591 138.412 59.7137 138.726 59.8514 139.048L60.1134 139.687L60.2191 139.98C60.2896 140.172 60.3454 140.364 60.4083 140.572C60.5122 140.905 60.5977 141.243 60.6644 141.586L60.7536 141.993L60.752 142.092L60.7489 142.291C60.7894 142.521 60.8153 142.743 60.8411 142.973C60.9277 143.475 60.986 143.982 61.0157 144.491ZM40.2325 144.09C40.1857 147.282 41.7744 150.26 44.4038 151.909C48.4574 154.411 53.6938 153.034 56.1157 148.828C56.8968 147.502 57.3197 145.982 57.3397 144.428C57.3471 144.047 57.3286 143.666 57.2842 143.287C57.2872 143.096 57.246 142.912 57.2121 142.728L57.2136 142.636L57.1381 142.291C57.0936 142.059 57.0358 141.831 56.9651 141.607C56.9163 141.438 56.8744 141.292 56.8179 141.146L56.8193 141.061L56.7839 140.969C56.7278 140.812 56.6639 140.657 56.5927 140.507C56.502 140.287 56.3972 140.073 56.2792 139.867L56.208 139.72L56.1148 139.566C56.0676 139.496 56.0245 139.424 55.9859 139.349C55.9353 139.255 55.8778 139.164 55.8136 139.079L55.5763 138.738L55.4969 138.645C55.4452 138.568 55.3873 138.495 55.3238 138.428L55.2156 138.296L55.2163 138.25C55.1297 138.149 55.043 138.048 54.9489 137.955C54.8548 137.862 54.7029 137.698 54.5941 137.605L54.5217 137.535C54.4129 137.433 54.2969 137.332 54.1733 137.238C53.8974 137.005 53.6059 136.793 53.3009 136.604C53.1334 136.501 52.9584 136.407 52.7834 136.312C52.4374 136.133 52.0813 135.976 51.7171 135.842C51.3655 135.712 51.0061 135.607 50.6411 135.526C49.8735 135.359 49.0876 135.302 48.3052 135.356C48.2123 135.347 48.1189 135.346 48.0258 135.351C47.9989 135.354 47.9717 135.354 47.945 135.35L47.7317 135.346C47.6509 135.345 47.5112 135.342 47.3779 135.401L47.2235 135.399C47.1845 135.394 47.145 135.393 47.1059 135.397C47.0452 135.415 46.9836 135.429 46.9213 135.439C46.8699 135.439 46.8184 135.438 46.7743 135.437C46.7302 135.436 46.6934 135.435 46.6861 135.435C46.5535 135.466 46.4227 135.504 46.2945 135.551L46.0432 135.631C46.0124 135.646 45.9802 135.659 45.947 135.667L45.8213 135.711C45.6658 135.777 45.54 135.829 45.4214 135.888L45.3104 135.932C45.0997 136.023 44.8943 136.127 44.6951 136.243C43.341 137.076 42.2215 138.265 41.4491 139.69C40.6768 141.019 40.257 142.537 40.2325 144.09Z" fill="black"/>
<path id="Shape_2" d="M63.0621 14.8447C63.0523 15.3943 63.0093 15.9428 62.9332 16.4868L62.8193 17.1808L62.817 17.3261C62.7614 17.5852 62.691 17.8517 62.6211 18.0876C62.5613 18.3451 62.4886 18.5991 62.4032 18.8487C62.2291 19.3709 62.017 19.8786 61.7688 20.3675C61.6335 20.6787 61.4738 20.9778 61.2914 21.2618C61.213 21.4167 61.1247 21.5659 61.027 21.7085L60.8687 21.9505L60.5903 22.3511C60.455 22.54 60.3048 22.7363 60.1399 22.9324L59.8551 23.2717C59.7782 23.3648 59.6958 23.4528 59.6083 23.5351C59.4961 23.6556 59.3764 23.7835 59.2495 23.9037L59.145 24.0014C59.0031 24.1366 58.8687 24.2644 58.7346 24.3768C58.6478 24.4606 58.5557 24.5383 58.4588 24.6092C58.3247 24.7216 58.1905 24.834 58.0493 24.9311C57.6417 25.2435 57.2147 25.5275 56.771 25.7811C54.5976 27.0343 52.1083 27.5681 49.6356 27.3113C49.4708 27.2993 49.3066 27.2786 49.1438 27.2494C49.0483 27.2477 48.96 27.2462 48.8718 27.2447L48.4465 27.1686C47.8242 27.0388 47.2124 26.8596 46.6165 26.6326C46.441 26.5684 46.2365 26.4808 46.0392 26.401L45.9224 26.3454L45.7984 26.2821L45.5428 26.163C45.1898 25.9948 44.8466 25.805 44.5149 25.5948C42.7118 24.4191 41.2205 22.7923 40.1772 20.8631C37.9629 16.8896 37.9807 11.9831 40.2237 8.02696C42.4667 4.07087 46.5865 1.67989 51.0016 1.77182C55.4167 1.86375 59.4411 4.42431 61.5301 8.4706C62.5733 10.4172 63.1019 12.6165 63.0621 14.8447ZM59.1885 16.5835L59.1902 16.4764C59.1931 16.2929 59.2548 16.1104 59.2799 15.9197C59.5474 13.9977 59.1984 12.0375 58.2869 10.3426C56.8653 7.44274 54.034 5.58223 50.9055 5.49201C47.7769 5.40178 44.8509 7.09625 43.2769 9.90969C41.703 12.7231 41.7327 16.206 43.3543 18.99C44.0889 20.3546 45.1434 21.5039 46.4196 22.331C46.6393 22.4738 46.8683 22.6003 47.1049 22.7098L47.2727 22.7968C47.3388 22.798 47.3968 22.8525 47.4625 22.8842L47.8425 23.036C48.2564 23.1968 48.6825 23.3218 49.1162 23.4095L49.3728 23.4598C49.4144 23.4572 49.4562 23.4579 49.4978 23.4619L49.5713 23.4632C49.6129 23.4602 49.6547 23.4609 49.6963 23.4653C49.772 23.4742 49.8483 23.4755 49.9242 23.4692C51.6697 23.6597 53.4294 23.2865 54.9638 22.4004C55.2788 22.2264 55.5817 22.0297 55.8703 21.8117C55.8863 21.792 55.9068 21.7766 55.9298 21.7668C56.005 21.7111 56.0772 21.651 56.1459 21.5869L56.2799 21.4822C56.2963 21.4607 56.3166 21.4429 56.3396 21.4296C56.4514 21.3321 56.5486 21.2343 56.6531 21.1367C56.6748 21.1187 56.6948 21.0985 56.7129 21.0765C56.7886 21.0077 56.861 20.935 56.9296 20.8585L57.0567 20.723C57.1764 20.595 57.2514 20.5045 57.3189 20.4215L57.3864 20.3385C57.4762 20.2406 57.5514 20.1349 57.6264 20.0367L57.7998 19.772L57.8826 19.651L57.8295 19.7495C57.8705 19.6736 57.9159 19.6003 57.9654 19.5301C57.9661 19.4842 58.018 19.4545 58.0407 19.4166C58.0676 19.3503 58.1006 19.2868 58.1393 19.2271C58.2568 19.0504 58.3582 18.8626 58.4423 18.6663C58.6231 18.3072 58.7765 17.934 58.9012 17.5499L59.0564 17.0325L59.1885 16.5835Z" fill="black"/>
<path id="Shape_3" d="M26.073 79.0537C26.0687 79.329 26.0646 79.589 26.0602 79.8642C26.0494 80.097 26.0261 80.3289 25.9904 80.559C25.9687 80.7773 25.9334 80.9938 25.8846 81.2073L25.8805 81.4673C25.8505 81.6396 25.8109 81.81 25.7621 81.9777L25.7071 82.2062L25.6599 82.3966L25.5435 82.7846C25.489 82.9749 25.4197 83.1726 25.3506 83.3549L25.1666 83.8336L24.9834 84.2588L24.9153 84.38C24.8466 84.5394 24.7705 84.6987 24.6873 84.8503L24.5887 85.0398C24.4965 85.2323 24.3903 85.4171 24.2711 85.5927C24.0236 86.007 23.7496 86.4035 23.4508 86.7794C23.0015 87.3591 22.5006 87.8935 21.9548 88.3753C21.813 88.5029 21.6417 88.6453 21.4704 88.78L21.3214 88.8998C21.2395 88.9673 21.1576 89.0271 21.0684 89.0867L20.9717 89.1616L20.8972 89.2215C20.5626 89.4529 20.2357 89.6614 19.8425 89.8841C17.9844 91.0276 15.8561 91.6085 13.6975 91.5613C6.94106 91.4459 1.55377 85.6561 1.66468 78.6294C1.77558 71.6027 7.34267 65.9999 14.0991 66.1153C16.258 66.1418 18.3668 66.795 20.1878 68.0012C20.529 68.2049 20.8593 68.4276 21.1774 68.6682L21.3881 68.8324L21.6349 69.0355L21.8019 69.176C21.947 69.3008 22.1064 69.4489 22.2659 69.5969C22.796 70.0945 23.2798 70.6431 23.7108 71.2353C23.9944 71.6192 24.2534 72.0222 24.486 72.4416C24.5994 72.624 24.6997 72.8149 24.7858 73.0127L24.8785 73.1979C24.957 73.3522 25.028 73.514 25.0917 73.668L25.0906 73.7368C25.1828 73.9526 25.2465 74.1143 25.2956 74.2604C25.3448 74.4066 25.4087 74.553 25.4576 74.7144C25.5065 74.8759 25.5839 75.099 25.6324 75.291L25.7365 75.6828L25.7344 75.8128L25.796 76.1045C25.8435 76.2938 25.8798 76.486 25.9046 76.68L25.9015 76.8788C25.9434 77.0938 25.9719 77.3114 25.9868 77.5303C25.9828 77.7826 26.0376 78.0359 26.0409 78.296C26.0441 78.5561 26.0774 78.7785 26.073 79.0537ZM22.3046 80.1902L22.3069 80.0449C22.3315 79.8984 22.3486 79.7506 22.358 79.6022C22.3896 79.2157 22.3957 78.8274 22.3763 78.44L22.3328 77.9345L22.3354 77.7739C22.344 77.7157 22.3449 77.6565 22.3381 77.598C22.3177 77.5151 22.3042 77.4304 22.298 77.345L22.3 77.2226C22.2935 77.1498 22.2798 77.0778 22.2592 77.0078L22.2614 76.8702L22.2064 76.6245L22.151 76.4094L22.1522 76.3329L22.0613 76.0331L22.063 75.9261L21.9644 75.649L21.8513 75.3641C21.8189 75.3148 21.7948 75.2601 21.7803 75.2023L21.6736 74.971L21.6098 74.8246L21.5383 74.6934C21.5072 74.6176 21.4689 74.5452 21.424 74.4773L21.3739 74.3923C21.2149 74.102 21.0375 73.823 20.8429 73.5573C20.504 73.1447 20.1255 72.7693 19.7134 72.4367L19.3727 72.1249L19.3291 72.0859C19.3018 72.0694 19.2773 72.0483 19.2566 72.0235C19.1985 71.9766 19.1403 71.9374 19.0895 71.8906L18.8861 71.7342C18.7263 71.6091 18.5079 71.4677 18.2166 71.2868L18.1365 71.2396C16.8894 70.4056 15.4404 69.9565 13.9578 69.9445C9.23153 69.8639 5.33724 73.7831 5.25966 78.6984C5.18208 83.6138 8.95059 87.6638 13.6769 87.7445C15.1591 87.7832 16.6214 87.3838 17.8941 86.5928L18.0196 86.5644C18.2748 86.43 18.5227 86.281 18.762 86.1181L18.948 85.9837L19.1117 85.8641C19.1332 85.84 19.1583 85.8197 19.1862 85.8042C19.3052 85.7144 19.4171 85.6169 19.5289 85.5194C19.9031 85.1903 20.2462 84.8248 20.5537 84.4279C20.7598 84.1671 20.9484 83.8917 21.1182 83.6039L21.171 83.5207L21.2767 83.3466L21.3602 83.1797L21.436 83.0357C21.4798 82.9632 21.5179 82.8871 21.5499 82.8082C21.579 82.7279 21.6172 82.6515 21.6638 82.5807L21.7403 82.3985L21.8554 82.0945L21.8571 81.9875L21.9573 81.6909L21.9585 81.6144L22.0207 81.4014L22.0834 81.1577L22.0856 81.0201C22.1084 80.9508 22.1243 80.8793 22.1331 80.8067L22.1343 80.7303C22.1459 80.6298 22.1646 80.5305 22.1905 80.433L22.3046 80.1902Z" fill="black"/>
<path id="Shape_4" d="M132.962 145.711C132.861 151.454 129.068 156.413 123.71 157.807C118.352 159.201 112.761 156.685 110.071 151.669C109.014 149.729 108.474 147.531 108.509 145.302C108.515 144.883 108.543 144.464 108.595 144.049C108.589 143.977 108.59 143.906 108.599 143.835L108.603 143.552L108.653 143.178L108.749 142.728C108.855 142.236 108.988 141.751 109.147 141.274C109.211 141.063 109.285 140.855 109.37 140.651C109.609 140.031 109.901 139.434 110.244 138.869C110.323 138.708 110.414 138.553 110.516 138.407L110.674 138.165L110.952 137.764C111.088 137.575 111.238 137.379 111.403 137.183L111.687 136.844C111.764 136.75 111.847 136.662 111.934 136.58C112.047 136.46 112.166 136.332 112.293 136.219L112.405 136.106C112.547 135.971 112.674 135.851 112.808 135.738C112.901 135.646 113.001 135.56 113.106 135.483C113.218 135.394 113.352 135.281 113.493 135.184C113.901 134.872 114.328 134.588 114.772 134.334C116.935 133.082 119.414 132.548 121.878 132.803C122.052 132.813 122.226 132.834 122.399 132.866C122.494 132.867 122.583 132.869 122.671 132.87C122.759 132.872 122.971 132.921 123.118 132.955C123.733 133.081 124.338 133.258 124.926 133.483C125.102 133.547 125.306 133.634 125.503 133.714C125.544 133.728 125.583 133.747 125.62 133.77L125.744 133.833L126 133.952C126.352 134.122 126.695 134.312 127.028 134.52C128.831 135.696 130.322 137.323 131.365 139.252C132.44 141.219 132.992 143.449 132.962 145.711ZM112.163 145.356C112.144 146.91 112.52 148.442 113.255 149.796C114.711 152.629 117.523 154.427 120.611 154.497C123.7 154.567 126.584 152.9 128.158 150.135C129.731 147.37 129.748 143.938 128.203 141.156C127.468 139.791 126.413 138.642 125.137 137.815C124.918 137.675 124.692 137.549 124.459 137.436L124.284 137.349C124.218 137.348 124.16 137.294 124.094 137.262L123.714 137.11C123.3 136.949 122.874 136.824 122.441 136.736C122.36 136.735 122.279 136.734 122.184 136.686C122.142 136.689 122.101 136.688 122.059 136.684L121.986 136.683C121.944 136.686 121.902 136.685 121.861 136.681C121.785 136.672 121.709 136.671 121.633 136.677C121.613 136.673 121.593 136.672 121.574 136.676C119.847 136.499 118.109 136.875 116.593 137.753C116.278 137.927 115.975 138.124 115.686 138.342C115.67 138.362 115.65 138.377 115.627 138.387C115.545 138.447 115.47 138.514 115.396 138.574L115.299 138.649C115.275 138.678 115.248 138.703 115.217 138.724L114.904 139.009L114.844 139.077L114.627 139.295L114.5 139.431C114.38 139.559 114.305 139.649 114.238 139.732L114.17 139.815C114.081 139.913 114.005 140.019 113.93 140.117L113.757 140.382L113.674 140.503L113.727 140.404C113.686 140.48 113.641 140.553 113.591 140.624L113.516 140.745L113.432 140.904C113.188 141.299 112.982 141.718 112.817 142.155C112.76 142.281 112.711 142.41 112.671 142.543C112.554 142.886 112.457 143.237 112.383 143.593L112.311 143.921L112.309 144.059L112.309 144.082L112.259 144.425L112.256 144.593C112.211 144.848 112.18 145.105 112.163 145.364L112.163 145.356Z" fill="black"/>
<path id="Shape_5" d="M169.958 81.5101C169.843 88.535 164.279 94.1353 157.524 94.0242C155.365 93.9978 153.256 93.3446 151.435 92.1383C151.094 91.9346 150.764 91.7119 150.445 91.4713C149.627 90.8449 149.451 89.6469 150.054 88.7955C150.656 87.9441 151.808 87.7617 152.627 88.3881C152.861 88.5591 153.104 88.7165 153.355 88.8595L153.435 88.9067C154.682 89.7407 156.131 90.1898 157.614 90.2017C160.671 90.2539 163.523 88.6058 165.095 85.8783C166.667 83.1507 166.721 79.758 165.235 76.9783C163.75 74.1985 160.952 72.454 157.894 72.4018C156.412 72.3631 154.95 72.7625 153.677 73.5535L153.537 73.5817C153.282 73.716 153.034 73.865 152.795 74.0279C152.253 74.4148 151.553 74.4716 150.96 74.1769C150.367 73.8821 149.97 73.2806 149.918 72.5989C149.867 71.9172 150.17 71.2589 150.712 70.8719C151.037 70.6423 151.375 70.4311 151.722 70.2391C153.58 69.0956 155.708 68.5148 157.867 68.562C161.124 68.6033 164.231 69.9927 166.5 72.4228C168.769 74.8528 170.014 78.1231 169.958 81.5101Z" fill="black"/>
<path id="Shape_6" d="M149.853 85.2355C149.854 86.1543 149.227 86.9442 148.359 87.1164C147.491 87.2886 146.628 86.7945 146.304 85.9397L146.122 85.4012C145.86 84.4101 146.399 83.3817 147.342 83.0728C148.284 82.7639 149.293 83.285 149.625 84.2526L149.724 84.5297C149.809 84.7545 149.852 84.9939 149.853 85.2355Z" fill="black"/>
<path id="Shape_7" d="M149.981 77.1004C149.98 77.3625 149.929 77.6218 149.829 77.8626L149.722 78.1361C149.359 79.0919 148.334 79.5783 147.402 79.2374C146.47 78.8965 145.964 77.8502 146.256 76.8685L146.456 76.3366C146.807 75.4933 147.685 75.0289 148.546 75.2307C149.408 75.4324 150.01 76.2433 149.98 77.1616L149.981 77.1004Z" fill="black"/>
<path id="Shape_8" d="M135 16.1262C134.967 18.3537 134.364 20.5318 133.253 22.4367C132.152 24.3331 130.609 25.911 128.768 27.0255C128.413 27.232 128.047 27.4172 127.671 27.5803L127.583 27.5788C127.442 27.6376 127.301 27.704 127.161 27.7552C127.02 27.8063 126.961 27.8359 126.843 27.8721C126.725 27.9083 126.569 27.9745 126.421 28.0179C126.274 28.0613 126.015 28.1486 125.793 28.206C125.572 28.2634 125.572 28.2634 125.469 28.2846C125.365 28.3058 125.159 28.3558 125.004 28.3837L124.827 28.3807C124.673 28.3781 124.488 28.4361 124.296 28.4634L124.076 28.4597C123.892 28.4565 123.715 28.4994 123.524 28.5114C122.421 28.5848 121.313 28.499 120.233 28.2564C119.709 28.1456 119.192 27.9962 118.688 27.8094C118.188 27.6206 117.7 27.3976 117.228 27.142C116.987 27.0232 116.74 26.8813 116.499 26.7319C116.055 26.4572 115.63 26.151 115.227 25.8153C115.06 25.6825 114.864 25.5109 114.675 25.3394C114.487 25.1679 114.313 24.9967 114.147 24.8179C113.98 24.6392 113.8 24.4373 113.634 24.2432C113.468 24.0492 113.345 23.8941 113.215 23.716C113.086 23.5379 112.985 23.4062 112.848 23.2203C112.758 23.0935 112.674 22.9619 112.597 22.8259L112.353 22.4317C112.115 22.0214 111.9 21.5963 111.712 21.1588C111.596 20.9094 111.497 20.6522 111.415 20.389C111.337 20.1811 111.246 19.9195 111.162 19.6198C111.079 19.3201 111.023 19.1433 110.96 18.8898C110.898 18.6364 110.864 18.4752 110.823 18.2527L110.825 18.1839L110.744 17.716C110.719 17.5715 110.701 17.4256 110.692 17.2791L110.652 16.9725L110.655 16.789C110.617 16.3694 110.601 15.9478 110.609 15.5263C110.638 13.2938 111.247 11.111 112.371 9.20847C115.237 4.30347 120.906 2.00118 126.21 3.58806C131.513 5.17494 135.139 10.2581 135.061 15.9973L135 16.1262ZM126.33 24.0164C126.541 23.9253 126.746 23.8216 126.945 23.7057C128.248 22.9167 129.338 21.799 130.115 20.4558C132.529 16.2292 131.205 10.7682 127.153 8.23712C123.101 5.73965 117.87 7.11668 115.448 11.3183C114.664 12.6456 114.239 14.1681 114.217 15.7256C114.212 16.0314 114.208 16.3067 114.24 16.552L114.238 16.6972L114.277 17.0115L114.276 17.0803L114.364 17.6018C114.39 17.7622 114.424 17.9211 114.466 18.0778C114.501 18.2443 114.545 18.4085 114.598 18.5695C114.661 18.7771 114.725 18.9617 114.795 19.1388C114.84 19.2763 114.895 19.4101 114.958 19.5393L114.957 19.6158C115.093 19.9227 115.245 20.2215 115.413 20.5108L115.557 20.7503C115.598 20.8034 115.634 20.8603 115.664 20.9204L115.722 21.0131C115.815 21.1448 115.909 21.2764 116.01 21.4005C116.111 21.5246 116.226 21.6795 116.32 21.7958C116.413 21.9121 116.5 22.013 116.609 22.122L116.674 22.1843C116.775 22.2964 116.881 22.4029 116.992 22.5033L117.065 22.5733C117.174 22.6746 117.29 22.776 117.413 22.8699C117.689 23.1027 117.981 23.3147 118.286 23.5043C118.453 23.6066 118.628 23.7013 118.803 23.7961C119.149 23.9748 119.505 24.1316 119.869 24.2656C120.223 24.3966 120.585 24.5024 120.953 24.5823C121.718 24.7493 122.501 24.8065 123.281 24.7521C123.374 24.7608 123.468 24.7624 123.561 24.7569C123.588 24.7535 123.615 24.754 123.642 24.7582L123.855 24.7619C123.936 24.7633 124.075 24.7656 124.209 24.7067C124.26 24.7033 124.312 24.7042 124.363 24.7094C124.363 24.7094 124.429 24.7105 124.481 24.7114C124.532 24.7123 124.62 24.7138 124.665 24.6686C124.71 24.6235 124.768 24.6704 124.812 24.6711C124.856 24.6719 124.893 24.6725 124.9 24.6727C125.033 24.6422 125.164 24.6036 125.292 24.557L125.543 24.4771C125.574 24.4616 125.606 24.4493 125.64 24.4405L125.765 24.3968C125.921 24.3306 126.047 24.2792 126.165 24.2201L126.33 24.0164Z" fill="black"/>
<path id="Shape_9" d="M154.172 71.5659C154.147 72.5681 153.651 73.494 152.846 74.0442L152.764 74.0963C152.69 74.1486 152.608 74.2084 152.526 74.2758C152.504 74.2999 152.479 74.3202 152.451 74.3357L152.451 74.374C152.344 74.4458 152.244 74.5287 152.153 74.6213C151.761 74.9602 151.403 75.3383 151.083 75.7502C150.877 76.0111 150.688 76.2864 150.519 76.5742L150.466 76.6574L150.36 76.8315L150.269 76.9983L150.201 77.1424C150.164 77.2057 150.131 77.2715 150.102 77.3396C150.07 77.4209 150.032 77.4995 149.988 77.5747L149.897 77.7796L149.782 78.0836L149.78 78.1906L149.68 78.4872L149.678 78.5637L149.585 78.8833L149.583 79.0209L149.581 79.1586C149.558 79.2278 149.542 79.2993 149.533 79.3719L149.532 79.4484C149.52 79.5488 149.502 79.6481 149.476 79.7457L149.473 79.9368L149.47 80.0897L149.464 80.5256C149.432 80.9121 149.426 81.3004 149.445 81.6878L149.481 82.1855L149.479 82.3537C149.47 82.4119 149.469 82.4711 149.476 82.5296C149.496 82.6125 149.51 82.6972 149.516 82.7826L149.514 82.905C149.521 82.9779 149.534 83.0498 149.555 83.1198L149.553 83.2575L149.551 83.3721L149.641 83.7178L149.64 83.7943L149.731 84.0941L149.729 84.2012L149.828 84.4782L149.941 84.7555L150.026 84.9558C150.052 85.0247 150.083 85.0917 150.118 85.1562L150.182 85.3026C150.209 85.343 150.231 85.3871 150.246 85.4337L150.368 85.6499L150.418 85.7349C150.577 86.0252 150.755 86.3042 150.949 86.57C151.242 86.9742 151.571 87.3486 151.932 87.6881C152.023 87.7851 152.12 87.8762 152.222 87.9607C152.256 87.9819 152.288 88.0082 152.316 88.0388C152.343 88.0553 152.368 88.0764 152.388 88.1012L152.621 88.2887C152.648 88.3026 152.672 88.3211 152.694 88.3435C153.939 89.2624 154.301 91.0194 153.527 92.3883L128.198 136.284C127.404 137.606 125.781 138.096 124.43 137.421L124.284 137.349L124.109 137.27L124.057 137.269C123.94 137.221 123.831 137.173 123.714 137.133C123.3 136.972 122.874 136.847 122.44 136.76C122.359 136.758 122.278 136.757 122.183 136.709C122.142 136.712 122.1 136.711 122.059 136.707L121.985 136.706C121.943 136.709 121.902 136.708 121.86 136.704C121.784 136.695 121.708 136.694 121.632 136.7C119.887 136.509 118.127 136.883 116.592 137.769C116.277 137.943 115.975 138.139 115.686 138.357L115.567 138.447L115.403 138.574L115.299 138.664C115.275 138.693 115.247 138.719 115.217 138.739C115.12 138.83 115.015 138.912 114.926 139.01L114.858 139.085C114.793 139.137 114.733 139.195 114.679 139.258C114.626 139.322 114.568 139.382 114.507 139.439C114.491 139.465 114.471 139.487 114.447 139.506L114.29 139.695L114.185 139.823C114.095 139.921 114.02 140.027 113.945 140.125L113.771 140.39L113.689 140.511L113.742 140.412C113.701 140.488 113.655 140.561 113.606 140.632L113.515 140.775L113.447 140.912C113.203 141.307 112.996 141.726 112.831 142.163C112.773 142.297 112.722 142.434 112.678 142.574C112.564 142.91 112.47 143.253 112.397 143.601L112.326 143.929L112.323 144.067L112.32 144.288L112.319 144.372L112.316 144.525L112.315 144.579C112.172 146.142 110.899 147.328 109.39 147.305L60.1462 146.465C58.6399 146.432 57.4092 145.204 57.3154 143.64L57.3177 143.495L57.3207 143.304C57.3233 143.135 57.2818 142.974 57.2549 142.813L57.2574 142.652L57.2162 142.468C57.199 142.413 57.1851 142.356 57.1748 142.299C57.1329 142.091 57.0796 141.886 57.0153 141.685C56.9756 141.528 56.9265 141.374 56.8682 141.223L56.8695 141.139L56.8342 141.047C56.7828 140.9 56.7237 140.756 56.6571 140.615C56.5621 140.385 56.4526 140.16 56.3294 139.944L56.2582 139.798L56.1651 139.643L56.0647 139.481L55.8352 139.11L55.6266 138.816L55.5112 138.669C55.4714 138.609 55.4254 138.555 55.3741 138.506L55.2659 138.374L55.2666 138.328C55.1799 138.227 55.0933 138.126 54.9991 138.033L54.9339 137.97C54.8449 137.867 54.748 137.77 54.6443 137.682L54.5719 137.612C54.4632 137.511 54.3471 137.41 54.2236 137.316C53.9477 137.083 53.6561 136.871 53.3511 136.681C53.1836 136.579 53.0086 136.484 52.8336 136.39C52.4876 136.211 52.1316 136.054 51.7673 135.92C51.4135 135.789 51.0516 135.683 50.684 135.603C49.9189 135.436 49.1354 135.379 48.3554 135.434C48.2675 135.425 48.179 135.423 48.0908 135.429C48.0908 135.429 48.0246 135.428 47.9952 135.427L47.782 135.424C47.7011 135.422 47.5614 135.42 47.4281 135.479L47.1478 135.535C47.0896 135.553 47.0304 135.568 46.9706 135.578L46.8677 135.577C46.8677 135.577 46.7648 135.575 46.7346 135.62C46.602 135.651 46.4712 135.689 46.343 135.736C46.2965 135.738 46.2498 135.738 46.2034 135.733C46.1372 135.732 46.0627 135.792 45.9962 135.814L45.8705 135.858L45.6258 135.984C45.5523 135.982 45.4778 136.042 45.4037 136.079C45.3304 136.119 45.2536 136.151 45.1742 136.175C43.8342 136.689 42.3326 136.128 41.6138 134.844L17.7502 90.124C17.0072 88.7385 17.4276 86.9911 18.7103 86.1328L18.7921 86.0806L19.0302 85.9011C19.0517 85.877 19.0769 85.8568 19.1047 85.8412C19.2118 85.7694 19.3116 85.6865 19.4028 85.5939C19.794 85.255 20.1522 84.8768 20.4722 84.465C20.6784 84.2041 20.867 83.9288 21.0367 83.641L21.0895 83.5577L21.1952 83.3836L21.2788 83.2168L21.3546 83.0728C21.3918 83.0095 21.4248 82.9436 21.4533 82.8756C21.4889 82.7859 21.5321 82.6996 21.5824 82.6178L21.6588 82.4355L21.7739 82.1316L21.7756 82.0245L21.8759 81.728L21.8771 81.6515C21.9149 81.5472 21.9461 81.4405 21.9704 81.3319L21.9725 81.1943L21.9747 81.0566C21.9975 80.9874 22.0134 80.9159 22.0222 80.8433L22.0234 80.7668C22.035 80.6664 22.0538 80.567 22.0796 80.4695L22.0826 80.2784L22.085 80.1254L22.0919 79.6896C22.1235 79.3031 22.1296 78.9148 22.1102 78.5274L22.074 78.0297L22.0766 77.8615C22.0852 77.8032 22.0861 77.7441 22.0794 77.6856C22.0589 77.6026 22.0455 77.518 22.0393 77.4325L22.0412 77.3102C22.0347 77.2373 22.0211 77.1653 22.0005 77.0954L22.0026 76.9577L22.0044 76.843C21.9866 76.7256 21.9589 76.6099 21.9216 76.4975L21.9229 76.421L21.832 76.1212L21.8337 76.0141L21.7351 75.7371L21.6219 75.4522L21.5367 75.2596L21.4443 75.0591L21.3804 74.9127L21.3089 74.7815C21.2779 74.7057 21.2396 74.6333 21.1947 74.5654L21.1445 74.4804C20.9856 74.1901 20.8082 73.9111 20.6135 73.6453C20.3514 73.2135 20.0499 72.8088 19.7134 72.4369C19.6223 72.3398 19.5255 72.2487 19.4235 72.1642C19.3886 72.1431 19.3568 72.1168 19.3291 72.0862C19.3018 72.0696 19.2773 72.0485 19.2566 72.0237L19.0242 71.8362C18.9972 71.8224 18.9726 71.8039 18.9516 71.7814C17.7064 70.8625 17.3444 69.1055 18.1182 67.7367L43.3652 23.8776C44.1594 22.5554 45.7826 22.0659 47.1337 22.7411L47.2796 22.8125L47.4549 22.8919L47.5284 22.8932C47.6313 22.895 47.7403 22.981 47.8499 23.0211C48.2639 23.1819 48.6899 23.3068 49.1236 23.3946L49.3802 23.4449C49.4219 23.4423 49.4636 23.443 49.5052 23.447L49.5787 23.4483C49.6204 23.4453 49.6622 23.446 49.7037 23.4504C49.7794 23.4592 49.8557 23.4605 49.9316 23.4543C51.6772 23.6448 53.4368 23.2716 54.9712 22.3855C55.2862 22.2115 55.5891 22.0148 55.8777 21.7967L55.9671 21.7218C56.0173 21.6887 56.0647 21.6511 56.1086 21.6095C56.165 21.5579 56.2247 21.5103 56.2874 21.4672C56.3037 21.4458 56.324 21.4279 56.347 21.4147C56.4514 21.3247 56.5409 21.2421 56.6381 21.1443L56.698 21.0765C56.7629 21.025 56.8229 20.9671 56.8772 20.9037C56.9307 20.8396 56.9882 20.7793 57.0492 20.7231C57.0654 20.6971 57.0856 20.6742 57.1091 20.6553L57.2665 20.4667L57.3715 20.3385C57.4613 20.2406 57.5365 20.1348 57.6116 20.0367L57.7849 19.772L57.8677 19.651L57.8147 19.7495C57.8556 19.6736 57.901 19.6003 57.9505 19.5301L58.0337 19.3862L58.1244 19.2271C58.2419 19.0503 58.3434 18.8626 58.4274 18.6663C58.6082 18.3072 58.7617 17.9339 58.8863 17.5499C58.9485 17.381 59.0004 17.2082 59.0415 17.0325L59.0433 16.9178C59.0825 16.7905 59.1141 16.6607 59.1377 16.5293L59.1397 16.407C59.1422 16.2464 59.2035 16.0869 59.2209 15.9189L59.2239 15.7278L59.2254 15.636L59.2262 15.5825C59.3694 14.0227 60.6381 12.8374 62.1446 12.856L111.292 13.695C112.802 13.7239 114.037 14.953 114.131 16.5198L114.127 16.7262L114.126 16.8103L114.122 17.0397L114.121 17.1544L114.167 17.4687L114.165 17.5834L114.255 17.975L114.253 18.0591C114.286 18.2152 114.328 18.3692 114.378 18.5201C114.441 18.7277 114.505 18.9123 114.575 19.0894C114.627 19.2365 114.686 19.3804 114.752 19.5208C114.889 19.8448 115.047 20.1592 115.223 20.4619L115.323 20.6395C115.358 20.6827 115.39 20.7294 115.416 20.7787L115.56 21.003C115.64 21.1238 115.727 21.2402 115.819 21.3516L115.891 21.4522C115.952 21.5402 116.02 21.6231 116.093 21.7004L116.172 21.8088C116.249 21.9024 116.331 21.9907 116.418 22.0731L116.512 22.1665C116.601 22.2702 116.698 22.3665 116.802 22.4544L116.874 22.5244C116.983 22.6257 117.099 22.7271 117.223 22.821C117.499 23.0538 117.79 23.2659 118.095 23.4554C118.263 23.5577 118.438 23.6525 118.613 23.7472C118.959 23.926 119.315 24.0827 119.679 24.2167C120.033 24.3477 120.395 24.4535 120.762 24.5334C121.527 24.7004 122.311 24.7576 123.091 24.7032C123.179 24.712 123.267 24.7135 123.356 24.7077C123.356 24.7077 123.422 24.7088 123.451 24.7093L123.664 24.713C123.745 24.7144 123.885 24.7167 124.018 24.6578C124.07 24.6544 124.121 24.6553 124.173 24.6605C124.224 24.6614 124.305 24.6627 124.387 24.6106L124.475 24.6121L124.578 24.6139C124.578 24.6139 124.681 24.6156 124.711 24.5702C124.843 24.5398 124.974 24.5012 125.102 24.4545C125.149 24.4519 125.196 24.4527 125.242 24.4569C125.308 24.4581 125.383 24.3982 125.449 24.3763L125.575 24.3326L125.686 24.2886C125.76 24.2899 125.834 24.2299 125.908 24.193C125.981 24.1533 126.058 24.1213 126.138 24.0975C127.478 23.583 128.979 24.1441 129.698 25.4278L153.562 70.1482C153.882 70.5566 154.092 71.0457 154.172 71.5659ZM150.167 71.3446L150.264 71.2621L127.049 27.83L126.865 27.8957C126.705 27.9607 126.542 28.0167 126.377 28.0633C126.192 28.1213 126.014 28.1794 125.83 28.2222C125.689 28.2661 125.546 28.302 125.402 28.3296C125.262 28.3272 125.121 28.3936 124.981 28.4218L124.805 28.4188C124.65 28.4162 124.465 28.4742 124.274 28.5015L124.061 28.4979C123.884 28.4949 123.692 28.5375 123.501 28.5495C122.398 28.6229 121.291 28.5371 120.21 28.2945C119.686 28.1837 119.17 28.0343 118.666 27.8475C118.165 27.6587 117.678 27.4357 117.205 27.1801C116.965 27.0613 116.717 26.9194 116.477 26.77C116.033 26.4953 115.607 26.1891 115.204 25.8534C115.037 25.7206 114.841 25.5566 114.653 25.3775C114.464 25.2101 114.285 25.0308 114.117 24.8406C113.93 24.6624 113.756 24.4703 113.597 24.2658C113.452 24.0951 113.315 23.9321 113.193 23.7618L112.826 23.2584L112.754 23.1501L112.618 22.9259C112.522 22.7889 112.434 22.647 112.352 22.5008C112.098 22.0696 111.871 21.6211 111.675 21.1584C111.589 20.9734 111.497 20.7501 111.413 20.5268C111.328 20.3036 111.222 19.9959 111.139 19.7191C111.055 19.4423 111.006 19.2732 110.944 19.0274C110.881 18.7816 110.826 18.536 110.786 18.26L110.686 17.6617L110.689 17.4782L62.8935 16.6623C62.8912 16.8076 62.8447 16.9597 62.8204 17.097L62.8185 17.2193C62.7627 17.4937 62.6998 17.7527 62.622 18.019C62.5575 18.2767 62.4799 18.5307 62.3894 18.7798C62.2218 19.3024 62.0146 19.8104 61.7698 20.2989C61.6304 20.6143 61.4683 20.9184 61.2848 21.2084C61.2073 21.3573 61.1215 21.5014 61.0279 21.6399L60.8697 21.882L60.5912 22.2826C60.4557 22.4766 60.3104 22.663 60.1559 22.8411C60.0439 22.9888 59.9238 23.1298 59.7962 23.2632L59.6241 23.4515C59.5043 23.5871 59.3774 23.7073 59.2504 23.8352L59.1757 23.9104C59.0357 24.0508 58.8887 24.1836 58.7355 24.3082C58.6537 24.3895 58.5665 24.4647 58.4746 24.5332C58.3702 24.6232 58.2586 24.7054 58.1468 24.7953L58.0798 24.8477C57.6617 25.1642 57.2249 25.453 56.7719 25.7125C54.5985 26.9657 52.1093 27.4995 49.6365 27.2427C49.4717 27.2307 49.3076 27.21 49.1448 27.1808C49.0492 27.1791 48.961 27.1776 48.8727 27.1761L48.4474 27.1C47.8251 26.9702 47.2134 26.791 46.6174 26.564C46.4858 26.5159 46.3397 26.4522 46.1863 26.3884L21.6195 69.0813L21.7138 69.167C21.899 69.3147 22.0757 69.4735 22.2431 69.6426C23.0926 70.462 23.8211 71.4074 24.405 72.4481C24.5184 72.6305 24.6187 72.8214 24.7049 73.0192L24.7977 73.1967L25.0178 73.6899L25.017 73.7435C25.1092 73.9592 25.1728 74.1209 25.222 74.267C25.2712 74.4132 25.335 74.5596 25.384 74.721C25.4329 74.8825 25.5103 75.1056 25.5587 75.2976C25.6072 75.4896 25.6701 75.6972 25.7109 75.9044L25.7517 76.1193C25.8 76.3058 25.8363 76.4955 25.8604 76.6871L25.8572 76.8859C25.8992 77.1009 25.9277 77.3185 25.9425 77.5374C25.9387 77.7821 25.9933 78.0507 25.9966 78.3031C26.0202 78.8129 26.0122 79.3237 25.9725 79.8323C25.9619 80.0677 25.9386 80.3022 25.9026 80.5348C25.8802 80.7555 25.8448 80.9745 25.7966 81.1907L25.7927 81.443C25.7626 81.6154 25.7231 81.7858 25.6743 81.9534L25.6192 82.1819C25.5795 82.3648 25.5176 82.5626 25.4556 82.7604C25.3937 82.9582 25.3319 83.1483 25.2628 83.3307L25.0787 83.8094L24.8955 84.2346L24.8349 84.3482C24.7652 84.5121 24.6866 84.6716 24.5994 84.8261L24.5008 85.0156C24.4087 85.208 24.3025 85.3929 24.1832 85.5685C23.934 85.9816 23.66 86.3779 23.3629 86.7552C22.9136 87.3349 22.4127 87.8692 21.8669 88.3511C21.7136 88.4962 21.5518 88.6313 21.3825 88.7558L21.2856 88.8383L44.5071 132.316L44.6919 132.251C44.8516 132.186 45.0145 132.13 45.1799 132.083C45.3647 132.025 45.5421 131.967 45.7266 131.924C45.8553 131.884 45.9859 131.85 46.118 131.824L46.3911 131.76L46.472 131.761C46.5234 131.762 46.5749 131.763 46.6264 131.764L46.7513 131.766C46.9057 131.768 47.0905 131.71 47.2821 131.683L47.4953 131.687C47.6718 131.69 47.8637 131.647 48.055 131.635C49.158 131.562 50.2653 131.648 51.3456 131.89C51.87 132.001 52.3862 132.15 52.8902 132.337C53.3905 132.526 53.8784 132.749 54.3505 133.004C54.5913 133.123 54.8391 133.265 55.0794 133.415C55.5233 133.689 55.9485 133.996 56.3519 134.331C56.5189 134.464 56.7149 134.628 56.9032 134.807C57.0971 134.98 57.2808 135.164 57.4534 135.36C57.6054 135.515 57.75 135.67 57.8871 135.841C57.9408 135.89 57.9892 135.945 58.0316 136.004C58.1471 136.136 58.2552 136.276 58.356 136.415C58.4568 136.554 58.6297 136.779 58.7517 136.972C58.8653 137.134 58.9707 137.302 59.0673 137.475C59.0954 137.508 59.1195 137.544 59.1391 137.583C59.2395 137.746 59.3326 137.908 59.4181 138.078C59.589 138.382 59.7436 138.696 59.8813 139.018L60.1433 139.658L60.249 139.95C60.3193 140.158 60.3966 140.381 60.4522 140.588C60.5077 140.796 60.6124 141.157 60.6808 141.48C60.7415 141.704 60.787 141.932 60.8171 142.163L60.8158 142.247C60.8434 142.388 60.8632 142.532 60.8752 142.676L108.663 143.492L108.666 143.278L108.762 142.828C108.868 142.336 109.001 141.85 109.16 141.374C109.214 141.199 109.298 140.971 109.383 140.751C109.625 140.125 109.92 139.524 110.264 138.953C110.344 138.799 110.432 138.65 110.529 138.506L110.687 138.264L110.965 137.864C111.101 137.67 111.246 137.483 111.401 137.305C111.513 137.158 111.633 137.017 111.76 136.883L111.932 136.695C112.052 136.559 112.179 136.439 112.306 136.311L112.381 136.236C112.523 136.093 112.672 135.966 112.821 135.838C112.898 135.762 112.98 135.692 113.067 135.628C113.171 135.538 113.283 135.448 113.395 135.366L113.477 135.299C113.895 134.982 114.332 134.693 114.785 134.434C116.958 133.181 119.447 132.647 121.92 132.904C122.085 132.916 122.249 132.936 122.412 132.966C122.507 132.967 122.596 132.969 122.684 132.97C122.772 132.972 122.984 133.021 123.131 133.054C123.746 133.181 124.351 133.357 124.939 133.582C125.071 133.63 125.224 133.694 125.378 133.758L149.914 91.1335L149.82 91.0478C149.634 90.9001 149.458 90.7413 149.29 90.5722C148.441 89.7528 147.712 88.8075 147.128 87.7667C147.015 87.5843 146.915 87.3934 146.828 87.1956L146.736 87.0181L146.515 86.5249L146.48 86.4554C146.395 86.2551 146.331 86.1011 146.282 85.9473C146.233 85.7935 146.169 85.6547 146.12 85.4933C146.071 85.3318 145.994 85.1087 145.945 84.9167C145.897 84.7247 145.834 84.5094 145.793 84.3099L145.752 84.1027C145.705 83.9134 145.668 83.7212 145.644 83.5272L145.647 83.3284C145.605 83.1134 145.576 82.8958 145.561 82.6769C145.565 82.4322 145.511 82.1636 145.507 81.9112C145.484 81.4014 145.492 80.8906 145.531 80.382C145.542 80.1466 145.565 79.9121 145.601 79.6795C145.624 79.4588 145.659 79.2398 145.707 79.0236L145.711 78.7713C145.741 78.5989 145.781 78.4285 145.83 78.2609L145.877 78.0323L146.048 77.4539C146.103 77.2636 146.172 77.066 146.241 76.8836C146.31 76.7012 146.364 76.5645 146.425 76.4049L146.608 75.9874L146.669 75.8661C146.739 75.7022 146.817 75.5427 146.905 75.3883L147.003 75.2064C147.095 75.0116 147.202 74.8242 147.321 74.6458C147.57 74.2327 147.844 73.8364 148.141 73.4591C148.59 72.8794 149.091 72.3451 149.637 71.8632C149.797 71.6831 149.969 71.5148 150.152 71.3596L150.167 71.3446ZM119.95 80.6565C119.946 80.9952 119.855 81.3266 119.685 81.6157L102.808 110.451C102.47 111.033 101.859 111.384 101.206 111.372L69.3716 110.829C68.7177 110.818 68.1187 110.447 67.7985 109.854L51.8411 80.4575C51.5196 79.8557 51.5312 79.1212 51.8715 78.5307L68.748 49.6949C69.0868 49.1132 69.6972 48.7625 70.351 48.7739L102.185 49.3173C102.856 49.328 103.468 49.72 103.779 50.3388L103.822 50.4237L119.715 79.6889C119.876 79.9836 119.957 80.3179 119.95 80.6565ZM100.215 107.532L115.98 80.5888L101.066 53.1223L71.342 52.6148L55.5764 79.5576L70.4832 107.024L100.215 107.532Z" fill="black"/>
<path id="Shape_10" d="M55.3693 134.62C55.3591 135.275 55.0268 135.88 54.4889 136.221C53.951 136.562 53.2824 136.593 52.7173 136.303C52.3667 136.121 52.0058 135.962 51.6365 135.826C50.6795 135.472 50.1799 134.378 50.5205 133.382C50.8611 132.387 51.913 131.868 52.87 132.222C53.3703 132.411 53.8581 132.634 54.3303 132.889C54.971 133.207 55.3763 133.882 55.3693 134.62Z" fill="black"/>
<path id="Shape_11" d="M54.091 134.07C54.0877 134.276 54.0522 134.479 53.9859 134.673C53.6518 135.663 52.613 136.188 51.6582 135.849C51.2958 135.72 50.9268 135.611 50.5529 135.524C49.6319 135.313 49.0138 134.412 49.1221 133.438C49.2304 132.464 50.0299 131.733 50.9729 131.746C51.0929 131.736 51.2135 131.739 51.3331 131.752C51.8549 131.864 52.3686 132.013 52.8704 132.199C53.6235 132.483 54.1159 133.238 54.091 134.07Z" fill="black"/>
<path id="Shape_12" d="M152.438 89.165C152.432 89.6295 152.263 90.0756 151.962 90.4189C151.281 91.1952 150.126 91.2573 149.371 90.5582C148.841 90.055 148.358 89.5013 147.927 88.9045C147.31 88.064 147.466 86.863 148.274 86.2221C149.082 85.5812 150.237 85.743 150.853 86.5835C151.153 86.9937 151.486 87.3756 151.85 87.7248C152.237 88.094 152.451 88.6192 152.438 89.165Z" fill="black"/>
<path id="Shape_13" d="M23.8004 85.6078C23.7949 86.0348 23.6511 86.4473 23.3921 86.7786C22.9426 87.3605 22.4417 87.8973 21.896 88.3821C21.1217 89.0659 19.961 88.9673 19.3036 88.162C18.6461 87.3567 18.7409 86.1495 19.5153 85.4658C19.89 85.1293 20.2354 84.7589 20.5476 84.3592C21.0439 83.7287 21.8699 83.4948 22.6051 83.7764C23.3403 84.058 23.8231 84.7933 23.8077 85.6079L23.8004 85.6078Z" fill="black"/>
<path id="Shape_14" d="M152.689 73.2611C152.683 73.8083 152.45 74.326 152.049 74.6803C151.674 75.0169 151.329 75.3872 151.016 75.787C150.374 76.606 149.215 76.7283 148.427 76.0602C147.64 75.392 147.522 74.1864 148.165 73.3674C148.614 72.7856 149.115 72.2487 149.661 71.7639C150.437 71.0909 151.589 71.1924 152.246 71.9916C152.538 72.3438 152.696 72.7957 152.689 73.2611Z" fill="black"/>
<path id="Shape_15" d="M24.0084 72.4259C23.998 73.2407 23.4923 73.9591 22.7486 74.2154C22.005 74.4718 21.1868 74.2098 20.7106 73.5627C20.4112 73.1525 20.0777 72.7706 19.7137 72.4214C18.9614 71.7117 18.9047 70.502 19.5872 69.7195C20.2697 68.9371 21.4329 68.8782 22.1852 69.588C22.7153 70.0912 23.199 70.6448 23.6299 71.2417C23.8809 71.5807 24.0143 71.9981 24.0084 72.4259Z" fill="black"/>
<path id="Shape_16" d="M119.95 80.6562C119.946 80.9949 119.855 81.3262 119.685 81.6153L102.808 110.451C102.47 111.033 101.859 111.383 101.205 111.372L69.3715 110.829C68.7177 110.818 68.1187 110.446 67.7985 109.853L51.8411 80.4571C51.5196 79.8553 51.5312 79.1208 51.8715 78.5303L68.748 49.6945C69.0868 49.1129 69.6972 48.7622 70.351 48.7735L102.185 49.317C102.856 49.3276 103.468 49.7196 103.779 50.3384L103.822 50.4233L119.715 79.6885C119.876 79.9832 119.957 80.3175 119.95 80.6562ZM100.215 107.531L115.98 80.5884L101.066 53.1219L71.342 52.6145L55.5764 79.5572L70.4832 107.024L100.215 107.531Z" fill="black"/>
<path id="Shape_17" d="M122.452 26.5198C122.449 26.6456 122.434 26.7707 122.409 26.8938C122.22 27.781 121.457 28.4074 120.584 28.3923C120.464 28.4015 120.343 28.3994 120.224 28.3861C119.702 28.2745 119.188 28.1252 118.686 27.9393C117.727 27.5913 117.221 26.5006 117.556 25.5032C117.89 24.5057 118.939 23.9791 119.898 24.3271C120.26 24.4564 120.629 24.5649 121.003 24.6519C121.849 24.8425 122.452 25.6203 122.452 26.5198Z" fill="black"/>
<path id="Shape_18" d="M121.142 26.1379C121.14 26.346 121.104 26.5522 121.036 26.748C120.77 27.5194 120.062 28.0296 119.274 28.0181C119.074 28.0153 118.875 27.9783 118.687 27.9086C118.187 27.7198 117.699 27.4969 117.227 27.2413C116.364 26.7439 116.033 25.6272 116.476 24.7108C116.919 23.7943 117.978 23.4047 118.876 23.8278C119.227 24.0096 119.588 24.169 119.957 24.3051C120.684 24.595 121.158 25.3283 121.142 26.1379Z" fill="black"/>
<path id="Shape_19" d="M119.95 80.6562C119.947 80.9949 119.855 81.3263 119.685 81.6154L102.809 110.451C102.47 111.033 101.859 111.384 101.206 111.372L69.3717 110.829C68.7135 110.818 68.1111 110.441 67.7926 109.842C67.4741 109.243 67.488 108.512 67.8291 107.927L84.7055 79.0909C85.0443 78.5092 85.6547 78.1585 86.3085 78.1699L118.157 78.7136C119.172 78.7309 119.982 79.6008 119.965 80.6565L119.95 80.6562ZM100.215 107.531L114.877 82.4816L87.2995 82.0109L72.6375 107.06L100.215 107.531Z" fill="black"/>
<path id="Shape_20" d="M119.95 80.6566C119.934 81.7123 119.097 82.554 118.082 82.5367L86.2481 81.9933C85.5943 81.9823 84.9953 81.611 84.6751 81.0181L68.7177 51.6217C68.3953 51.0248 68.4044 50.2941 68.7417 49.7061C69.0789 49.118 69.6928 48.7625 70.3511 48.7739L102.185 49.3174C102.856 49.3281 103.468 49.7201 103.779 50.3388L103.822 50.4237L119.715 79.6889C119.876 79.9836 119.957 80.3179 119.95 80.6566ZM87.3598 78.1882L114.937 78.659L101.066 53.1223L73.4962 52.6517L87.3598 78.1882Z" fill="black"/>
<path id="Shape_21" d="M88.1162 80.1127C88.1124 80.4514 88.0208 80.7828 87.851 81.0719L70.9746 109.908C70.636 110.49 70.0255 110.841 69.3715 110.83C68.7175 110.819 68.1185 110.447 67.7985 109.853L51.8411 80.4572C51.5196 79.8553 51.5312 79.1209 51.8716 78.5303L68.748 49.6945C69.0866 49.1125 69.697 48.7614 70.351 48.7726C71.005 48.7837 71.604 49.1555 71.924 49.7487L87.8814 79.1451C88.042 79.4398 88.1231 79.7741 88.1162 80.1127ZM69.4613 105.14L84.1461 80.045L70.2612 54.4622L55.5764 79.5573L69.4613 105.14Z" fill="black"/>
<path id="Shape_22" d="M55.2824 79.5522C55.2657 80.6079 54.4293 81.4497 53.4142 81.4323L24.2049 80.9337C23.1898 80.9164 22.3805 80.0465 22.3971 78.9908C22.4138 77.9351 23.2502 77.0934 24.2653 77.1107L53.4599 77.6091C53.9499 77.6134 54.4181 77.821 54.7603 78.1859C55.1025 78.5507 55.2904 79.0426 55.2824 79.5522Z" fill="black"/>
<path id="Shape_23" d="M148.579 81.145C148.562 82.2007 147.726 83.0425 146.711 83.0251L117.501 82.5265C116.486 82.5092 115.677 81.6393 115.693 80.5836C115.71 79.5279 116.547 78.6862 117.562 78.7035L146.771 79.2021C147.786 79.2194 148.595 80.0893 148.579 81.145Z" fill="black"/>
<path id="Shape_24" d="M70.7448 108.627C70.7391 108.963 70.6476 109.291 70.4798 109.578L55.3616 135.576C55.0362 136.189 54.4142 136.569 53.7405 136.564C53.0667 136.56 52.4493 136.173 52.1313 135.555C51.8134 134.937 51.8458 134.188 52.2158 133.602L67.334 107.605C67.5839 107.17 67.99 106.857 68.4626 106.734C68.9351 106.612 69.4351 106.69 69.852 106.952C70.4142 107.306 70.7539 107.943 70.7448 108.627Z" fill="black"/>
<path id="Shape_25" d="M118.996 25.5738C118.99 25.9098 118.899 26.2382 118.731 26.5253L103.613 52.5231C103.287 53.1367 102.665 53.516 101.991 53.5116C101.318 53.5072 100.7 53.1199 100.382 52.5022C100.064 51.8844 100.097 51.1353 100.467 50.5498L115.585 24.552C115.836 24.1167 116.244 23.8033 116.717 23.6808C117.191 23.5584 117.692 23.6369 118.11 23.8991C118.669 24.2562 119.005 24.8924 118.996 25.5738Z" fill="black"/>
<path id="Shape_26" d="M116.672 136.026C116.663 136.898 116.089 137.654 115.275 137.863C114.461 138.073 113.614 137.683 113.216 136.916L99.2231 110.245C98.7362 109.318 99.064 108.156 99.9554 107.649C100.847 107.143 101.964 107.484 102.451 108.411L116.444 135.082C116.597 135.371 116.675 135.696 116.672 136.026Z" fill="black"/>
<path id="Shape_27" d="M71.9731 50.8358C71.9648 51.7077 71.3903 52.4633 70.5765 52.6727C69.7627 52.8822 68.9157 52.4924 68.5174 51.7252L54.5246 25.0545C54.0377 24.1275 54.3655 22.9655 55.2569 22.459C56.1482 21.9526 57.2656 22.2935 57.7525 23.2206L71.7453 49.8912C71.901 50.1793 71.9796 50.5055 71.9731 50.8358Z" fill="black"/>
</g>
</g>
</g>
<defs>
<clipPath id="clip0_63_297">
<rect width="155.998" height="169.12" fill="white" transform="matrix(0.0157811 -0.999875 0.999854 0.0170684 0 156.619)"/>
</clipPath>
</defs>
</svg>
