<svg width="150" height="150" viewBox="0 0 150 150" fill="none" xmlns="http://www.w3.org/2000/svg">
<g id="vendor-icon 1">
<g id="accesses">
<g id="Group">
<g id="Group_2">
<g id="Group_3">
<path id="Vector" d="M138.281 140.625H91.4062C90.1125 140.625 89.0625 139.575 89.0625 138.281C89.0625 136.988 90.1125 135.938 91.4062 135.938H138.281C139.575 135.938 140.625 136.988 140.625 138.281C140.625 139.575 139.575 140.625 138.281 140.625Z" fill="#263238"/>
</g>
</g>
<g id="Group_4">
<g id="Group_5">
<path id="Vector_2" d="M133.594 138.281C132.3 138.281 131.25 137.231 131.25 135.938V112.5H98.4375V131.25C98.4375 132.544 97.3875 133.594 96.0938 133.594C94.8 133.594 93.75 132.544 93.75 131.25V110.156C93.75 108.863 94.8 107.812 96.0938 107.812H133.594C134.888 107.812 135.938 108.863 135.938 110.156V135.938C135.938 137.231 134.888 138.281 133.594 138.281Z" fill="#263238"/>
</g>
</g>
<g id="Group_6">
<g id="Group_7">
<path id="Vector_3" d="M58.5938 140.625H11.7188C10.425 140.625 9.375 139.575 9.375 138.281C9.375 136.988 10.425 135.938 11.7188 135.938H58.5938C59.8875 135.938 60.9375 136.988 60.9375 138.281C60.9375 139.575 59.8875 140.625 58.5938 140.625Z" fill="#263238"/>
</g>
</g>
<g id="Group_8">
<g id="Group_9">
<path id="Vector_4" d="M53.9062 138.281C52.6125 138.281 51.5625 137.231 51.5625 135.938V112.5H18.75V131.25C18.75 132.544 17.7 133.594 16.4062 133.594C15.1125 133.594 14.0625 132.544 14.0625 131.25V110.156C14.0625 108.863 15.1125 107.812 16.4062 107.812H53.9062C55.2 107.812 56.25 108.863 56.25 110.156V135.938C56.25 137.231 55.2 138.281 53.9062 138.281Z" fill="#263238"/>
</g>
</g>
<g id="Group_10">
<g id="Group_11">
<path id="Vector_5" d="M138.281 42.1875H91.4062C90.1125 42.1875 89.0625 41.1375 89.0625 39.8438C89.0625 38.55 90.1125 37.5 91.4062 37.5H138.281C139.575 37.5 140.625 38.55 140.625 39.8438C140.625 41.1375 139.575 42.1875 138.281 42.1875Z" fill="#263238"/>
</g>
</g>
<g id="Group_12">
<g id="Group_13">
<path id="Vector_6" d="M133.594 39.8438C132.3 39.8438 131.25 38.7938 131.25 37.5V14.0625H98.4375V32.8125C98.4375 34.1063 97.3875 35.1562 96.0938 35.1562C94.8 35.1562 93.75 34.1063 93.75 32.8125V11.7188C93.75 10.425 94.8 9.375 96.0938 9.375H133.594C134.888 9.375 135.938 10.425 135.938 11.7188V37.5C135.938 38.7938 134.888 39.8438 133.594 39.8438Z" fill="#263238"/>
</g>
</g>
<g id="Group_14">
<g id="Group_15">
<path id="Vector_7" d="M60.9375 42.1875H11.7188C10.425 42.1875 9.375 41.1375 9.375 39.8438C9.375 38.55 10.425 37.5 11.7188 37.5H60.9375C62.2313 37.5 63.2812 38.55 63.2812 39.8438C63.2812 41.1375 62.2313 42.1875 60.9375 42.1875Z" fill="#263238"/>
</g>
</g>
<g id="Group_16">
<g id="Group_17">
<path id="Vector_8" d="M53.9062 39.8438C52.6125 39.8438 51.5625 38.7938 51.5625 37.5V14.0625H18.75V32.8125C18.75 34.1063 17.7 35.1562 16.4062 35.1562C15.1125 35.1562 14.0625 34.1063 14.0625 32.8125V11.7188C14.0625 10.425 15.1125 9.375 16.4062 9.375H53.9062C55.2 9.375 56.25 10.425 56.25 11.7188V37.5C56.25 38.7938 55.2 39.8438 53.9062 39.8438Z" fill="#263238"/>
</g>
</g>
<g id="Group_18">
<g id="Group_19">
<path id="Vector_9" d="M75 98.4375C62.0766 98.4375 51.5625 87.9234 51.5625 75C51.5625 62.0766 62.0766 51.5625 75 51.5625C87.9234 51.5625 98.4375 62.0766 98.4375 75C98.4375 87.9234 87.9234 98.4375 75 98.4375ZM75 56.25C64.6594 56.25 56.25 64.6594 56.25 75C56.25 85.3406 64.6594 93.75 75 93.75C85.3406 93.75 93.75 85.3406 93.75 75C93.75 64.6594 85.3406 56.25 75 56.25Z" fill="#263238"/>
</g>
</g>
<g id="Group_20">
<g id="Group_21">
<path id="Vector_10" d="M112.5 100.781V84.375H105.469C104.175 84.375 103.125 83.325 103.125 82.0312C103.125 80.7375 104.175 79.6875 105.469 79.6875H114.844C116.137 79.6875 117.188 80.7375 117.188 82.0312V100.781C117.188 102.075 116.137 103.125 114.844 103.125C113.55 103.125 112.5 102.075 112.5 100.781Z" fill="#263238"/>
</g>
</g>
<g id="Group_22">
<g id="Group_23">
<path id="Vector_11" d="M32.8125 100.781V82.0312C32.8125 80.7375 33.8625 79.6875 35.1562 79.6875H44.5312C45.825 79.6875 46.875 80.7375 46.875 82.0312C46.875 83.325 45.825 84.375 44.5312 84.375H37.5V100.781C37.5 102.075 36.45 103.125 35.1562 103.125C33.8625 103.125 32.8125 102.075 32.8125 100.781Z" fill="#263238"/>
</g>
</g>
<g id="Group_24">
<g id="Group_25">
<path id="Vector_12" d="M35.1562 70.3125C33.8625 70.3125 32.8125 69.2625 32.8125 67.9688V49.2188C32.8125 47.925 33.8625 46.875 35.1562 46.875C36.45 46.875 37.5 47.925 37.5 49.2188V65.625H44.5312C45.825 65.625 46.875 66.675 46.875 67.9688C46.875 69.2625 45.825 70.3125 44.5312 70.3125H35.1562Z" fill="#263238"/>
</g>
</g>
<g id="Group_26">
<g id="Group_27">
<path id="Vector_13" d="M105.469 70.3125C104.175 70.3125 103.125 69.2625 103.125 67.9688C103.125 66.675 104.175 65.625 105.469 65.625H112.5V49.2188C112.5 47.925 113.55 46.875 114.844 46.875C116.137 46.875 117.188 47.925 117.188 49.2188V67.9688C117.188 69.2625 116.137 70.3125 114.844 70.3125H105.469Z" fill="#263238"/>
</g>
</g>
</g>
</g>
</g>
</svg>
