<svg width="153" height="140" viewBox="0 0 153 140" fill="none" xmlns="http://www.w3.org/2000/svg">
<g id="design-icom 1">
<g id="_x31_9_x5F_responsive_x5F_design">
<g id="Group">
<g id="Group_2">
<path id="Vector" d="M93.0869 116.669V136.528" stroke="#363F40" stroke-width="2.09668" stroke-miterlimit="10"/>
<path id="Vector_2" d="M64.4448 136.528V116.669" stroke="#363F40" stroke-width="2.09668" stroke-miterlimit="10"/>
<path id="Vector_3" d="M57.2842 136.528H100.247" stroke="#363F40" stroke-width="2.09668" stroke-miterlimit="10"/>
<path id="Vector_4" d="M57.2842 96.8105H109.795" stroke="#363F40" stroke-width="2.09668" stroke-miterlimit="10"/>
<path id="Vector_5" d="M76.3789 106.74H81.1526" stroke="#363F40" stroke-width="2.09668" stroke-miterlimit="10"/>
<path id="Vector_6" d="M11.9341 49.6465V12.4116H140.824V69.505" stroke="#363F40" stroke-width="2.09668" stroke-miterlimit="10"/>
<path id="Vector_7" d="M50.1235 12.4116V49.6465" stroke="#363F40" stroke-width="2.09668" stroke-miterlimit="10"/>
<path id="Vector_8" d="M11.9341 37.2349H140.824" stroke="#363F40" stroke-width="2.09668" stroke-miterlimit="10"/>
<path id="Vector_9" d="M78.7661 12.4116V86.8813" stroke="#363F40" stroke-width="2.09668" stroke-miterlimit="10"/>
<path id="Vector_10" d="M107.408 12.4116V86.8813H57.2842" stroke="#363F40" stroke-width="2.09668" stroke-miterlimit="10"/>
<path id="Vector_11" d="M109.795 116.669H57.2842" stroke="#363F40" stroke-width="2.09668" stroke-miterlimit="10"/>
<path id="Vector_12" d="M2.38672 49.6465V4.96474C2.38672 3.59202 3.45603 2.48242 4.77357 2.48242H147.984C149.304 2.48242 150.371 3.59202 150.371 4.96474V69.5051" stroke="#363F40" stroke-width="2.09668" stroke-miterlimit="10"/>
</g>
<g id="Group_3">
<path id="Vector_13" d="M50.1237 116.669H2.38672" stroke="#363F40" stroke-width="2.09668" stroke-miterlimit="10"/>
<path id="Vector_14" d="M50.1237 134.046C50.1237 135.418 49.0544 136.528 47.7368 136.528H4.77357C3.45603 136.528 2.38672 135.418 2.38672 134.046V59.5761C2.38672 58.2033 3.45603 57.0938 4.77357 57.0938H47.7368C49.0544 57.0938 50.1237 58.2033 50.1237 59.5761V134.046Z" stroke="#363F40" stroke-width="2.09668" stroke-miterlimit="10"/>
<path id="Vector_15" d="M21.4814 67.0225V116.669" stroke="#363F40" stroke-width="2.09668" stroke-miterlimit="10"/>
<path id="Vector_16" d="M2.38672 81.9165H50.1237" stroke="#363F40" stroke-width="2.09668" stroke-miterlimit="10"/>
</g>
<path id="Vector_17" d="M2.38672 67.0229H50.1237" stroke="#363F40" stroke-width="2.09668" stroke-miterlimit="10"/>
<path id="Vector_18" d="M150.371 134.046C150.371 135.418 149.305 136.528 147.985 136.528H119.342C118.022 136.528 116.956 135.418 116.956 134.046V79.4345C116.956 78.0617 118.022 76.9521 119.342 76.9521H147.985C149.305 76.9521 150.371 78.0617 150.371 79.4345V134.046Z" stroke="#363F40" stroke-width="2.09668" stroke-miterlimit="10"/>
<path id="Vector_19" d="M124.116 116.669H143.211" stroke="#363F40" stroke-width="2.09668" stroke-miterlimit="10"/>
<path id="Vector_20" d="M116.956 126.599H150.371" stroke="#363F40" stroke-width="2.09668" stroke-miterlimit="10"/>
<path id="Vector_21" d="M19.0947 126.599H33.4158" stroke="#363F40" stroke-width="2.09668" stroke-miterlimit="10"/>
<path id="Vector_22" d="M124.116 96.8105H143.211" stroke="#363F40" stroke-width="2.09668" stroke-miterlimit="10"/>
<path id="Vector_23" d="M124.116 106.74H143.211" stroke="#363F40" stroke-width="2.09668" stroke-miterlimit="10"/>
<path id="Vector_24" d="M116.956 86.8813H150.371" stroke="#363F40" stroke-width="2.09668" stroke-miterlimit="10"/>
</g>
</g>
</g>
</svg>
