<svg width="153" height="151" viewBox="0 0 153 151" fill="none" xmlns="http://www.w3.org/2000/svg">
<g id="time-icon 1" clip-path="url(#clip0_63_286)">
<path id="Vector" d="M101.941 50.3912C102.163 50.6103 102.427 50.7842 102.717 50.9028C103.007 51.0214 103.318 51.0824 103.632 51.0824C103.945 51.0824 104.256 51.0214 104.546 50.9028C104.836 50.7842 105.1 50.6103 105.322 50.3912L106.945 48.7894C115.527 58.0348 120.414 70.0428 120.696 82.5787L120.727 82.578C122.318 82.5813 123.908 82.6855 125.486 82.8899C125.274 68.2359 119.297 54.2375 108.816 43.8549C108.777 43.81 108.746 43.7606 108.703 43.718C108.672 43.6875 108.636 43.6664 108.604 43.6379C101.303 36.4711 92.182 31.3761 82.1982 28.8878C72.2144 26.3994 61.736 26.6094 51.8628 29.4957C41.9896 32.3821 33.0857 37.8383 26.0858 45.2917C19.0859 52.7451 14.2481 61.9208 12.0803 71.8557C9.91237 81.7906 10.4943 92.1182 13.7651 101.755C17.0358 111.391 22.8747 119.981 30.6689 126.622C38.463 133.263 47.925 137.712 58.0616 139.5C68.1982 141.288 78.6356 140.35 88.2783 136.784C87.5045 135.399 86.8229 133.966 86.2379 132.493C81.1933 134.324 75.8928 135.375 70.5235 135.611V133.305C70.5235 132.679 70.2716 132.079 69.8233 131.636C69.3749 131.194 68.7669 130.945 68.1328 130.945C67.4988 130.945 66.8907 131.194 66.4424 131.636C65.9941 132.079 65.7422 132.679 65.7422 133.305V135.604C53.4575 135.061 41.7577 130.271 32.6914 122.072L34.3244 120.46C34.7713 120.018 35.0219 119.418 35.0213 118.793C35.0207 118.168 34.7689 117.569 34.3212 117.127C33.8735 116.685 33.2664 116.437 32.6332 116.436C32 116.436 31.3925 116.683 30.9439 117.124L29.3109 118.736C21.0032 109.788 16.1496 98.2412 15.5998 86.1171H17.9297C18.5637 86.1171 19.1718 85.8685 19.6201 85.426C20.0685 84.9835 20.3203 84.3834 20.3203 83.7577C20.3203 83.1319 20.0685 82.5318 19.6201 82.0893C19.1718 81.6469 18.5637 81.3983 17.9297 81.3983H15.5998C16.1496 69.2742 21.0032 57.7273 29.3109 48.7795L30.9439 50.3912C31.3925 50.8322 32 51.0796 32.6332 51.079C33.2664 51.0784 33.8734 50.8299 34.3212 50.388C34.7689 49.9461 35.0207 49.347 35.0213 48.7221C35.0219 48.0972 34.7713 47.4976 34.3244 47.0549L32.6914 45.4432C41.7577 37.2441 53.4575 32.4539 65.7422 31.9113V34.2108C65.7422 34.8365 65.9941 35.4367 66.4424 35.8791C66.8907 36.3216 67.4988 36.5702 68.1328 36.5702C68.7669 36.5702 69.3749 36.3216 69.8233 35.8791C70.2716 35.4367 70.5235 34.8365 70.5235 34.2108V31.9104C82.8067 32.4553 94.5036 37.2499 103.564 45.4537L101.941 47.0549C101.719 47.2739 101.543 47.534 101.423 47.8202C101.303 48.1064 101.241 48.4132 101.241 48.723C101.241 49.0329 101.303 49.3397 101.423 49.6259C101.543 49.9121 101.719 50.1722 101.941 50.3912Z" fill="black"/>
<path id="Vector_2" d="M68.133 151C77.4015 151.007 86.5729 149.137 95.0796 145.506C93.86 144.349 92.7213 143.113 91.6715 141.804C83.1928 145.155 74.0802 146.656 64.9584 146.205C55.8366 145.755 46.9215 143.363 38.8242 139.193C30.7269 135.024 23.6389 129.175 18.0462 122.049C12.4536 114.923 8.48847 106.687 6.4228 97.9072C4.35712 89.127 4.23972 80.0098 6.07865 71.1806C7.91757 62.3514 11.6693 54.0191 17.0767 46.7549C22.4841 39.4907 29.4192 33.4665 37.4065 29.0953C45.3938 24.724 54.2445 22.1091 63.3517 21.4299V14.1562H72.9142V21.4299C88.8406 22.6175 103.725 29.6992 114.585 41.2568C125.446 52.8144 131.482 67.9948 131.485 83.7578C131.485 83.8901 131.475 84.0201 131.474 84.1522C133.093 84.6387 134.675 85.2348 136.21 85.9362C136.233 85.2113 136.266 84.4883 136.266 83.7578C136.263 67.5612 130.336 51.91 119.576 39.6809C108.815 27.4518 93.9441 19.4668 77.6954 17.1936V14.1562H83.0744C84.3424 14.1562 85.5586 13.6591 86.4552 12.7742C87.3519 11.8892 87.8556 10.689 87.8556 9.4375V4.71875C87.8556 3.46726 87.3519 2.26703 86.4552 1.38209C85.5586 0.497153 84.3424 0 83.0744 0L54.3869 0C53.1188 0 51.9027 0.497153 51.006 1.38209C50.1094 2.26703 49.6056 3.46726 49.6056 4.71875V9.4375C49.6056 10.689 50.1094 11.8892 51.006 12.7742C51.9027 13.6591 53.1188 14.1562 54.3869 14.1562H58.5705V17.1936C41.5013 19.5801 25.9836 28.2646 15.1458 41.4963C4.30795 54.728 -1.04398 71.5228 0.168933 88.4949C1.38185 105.467 9.0694 121.354 21.6818 132.953C34.2941 144.553 50.8933 151.002 68.133 151ZM54.3869 9.4375V4.71875H83.0744V9.4375H54.3869Z" fill="black"/>
<path id="Vector_3" d="M120.727 87.2969C114.343 87.2969 108.104 89.1649 102.796 92.6648C97.4891 96.1647 93.3525 101.139 90.9098 106.959C88.4671 112.779 87.828 119.184 89.0733 125.362C90.3185 131.541 93.3923 137.216 97.9058 141.671C102.419 146.125 108.17 149.159 114.43 150.388C120.691 151.617 127.18 150.986 133.077 148.575C138.974 146.165 144.015 142.082 147.561 136.844C151.107 131.606 153 125.448 153 119.148C152.99 110.704 149.587 102.608 143.537 96.6365C137.486 90.6653 129.283 87.3064 120.727 87.2969ZM120.727 146.281C115.289 146.281 109.974 144.69 105.453 141.709C100.932 138.727 97.4079 134.49 95.3271 129.532C93.2463 124.574 92.7019 119.118 93.7626 113.855C94.8234 108.592 97.4418 103.757 101.287 99.9626C105.132 96.168 110.03 93.5839 115.363 92.537C120.696 91.4901 126.224 92.0274 131.247 94.081C136.271 96.1346 140.565 99.6123 143.585 104.074C146.606 108.536 148.219 113.782 148.219 119.148C148.219 126.345 145.322 133.246 140.166 138.334C135.011 143.423 128.018 146.281 120.727 146.281Z" fill="black"/>
<path id="Vector_4" d="M116.093 112.142C116.093 110.463 117.411 108.827 120.94 108.827C123.136 108.807 125.259 109.601 126.892 111.051C127.362 111.574 128.014 111.904 128.72 111.973C129.323 111.978 129.903 111.747 130.334 111.33C130.764 110.913 131.009 110.345 131.016 109.75C131.012 109.271 130.864 108.803 130.59 108.407C129.145 106.393 126.339 105.05 122.938 104.631V102.197C122.94 101.939 122.891 101.683 122.793 101.444C122.695 101.205 122.55 100.987 122.366 100.804C122.182 100.62 121.964 100.475 121.722 100.375C121.481 100.276 121.222 100.225 120.961 100.225C120.699 100.225 120.44 100.276 120.199 100.375C119.958 100.475 119.739 100.62 119.555 100.804C119.371 100.987 119.226 101.205 119.128 101.444C119.03 101.683 118.981 101.939 118.984 102.197V104.589C113.542 105.176 111.161 108.407 111.161 112.142C111.161 122.254 126.679 119.443 126.679 125.569C126.679 128.17 124.808 129.429 120.94 129.429C119.619 129.391 118.32 129.089 117.121 128.541C115.923 127.993 114.85 127.21 113.967 126.24C113.741 125.961 113.457 125.734 113.134 125.575C112.811 125.416 112.457 125.328 112.096 125.317C111.692 125.323 111.297 125.434 110.95 125.64C110.604 125.845 110.319 126.138 110.125 126.488C109.93 126.837 109.833 127.232 109.844 127.63C109.854 128.029 109.971 128.418 110.183 128.758C111.201 130.165 112.513 131.339 114.032 132.201C115.551 133.062 117.24 133.591 118.984 133.75V136.101C118.981 136.359 119.03 136.614 119.128 136.853C119.227 137.093 119.372 137.31 119.556 137.493C119.739 137.677 119.958 137.822 120.199 137.922C120.441 138.021 120.699 138.072 120.961 138.072C121.222 138.072 121.481 138.021 121.722 137.922C121.963 137.822 122.182 137.677 122.366 137.493C122.55 137.31 122.695 137.093 122.793 136.853C122.891 136.614 122.94 136.359 122.938 136.101V133.75C128.635 133.205 131.611 130.184 131.611 125.569C131.611 115.079 116.093 117.638 116.093 112.142Z" fill="black"/>
<path id="Vector_5" d="M68.1328 41.2891C67.4988 41.2891 66.8907 41.5377 66.4424 41.9801C65.9941 42.4226 65.7422 43.0227 65.7422 43.6484V73.414C63.7704 73.8616 61.966 74.8477 60.5354 76.2597C59.1047 77.6716 58.1055 79.4524 57.652 81.3984H27.4922C26.8582 81.3984 26.2501 81.647 25.8018 82.0895C25.3534 82.5319 25.1016 83.1321 25.1016 83.7578C25.1016 84.3836 25.3534 84.9837 25.8018 85.4261C26.2501 85.8686 26.8582 86.1172 27.4922 86.1172H39.1728C39.6281 91.5709 41.6547 96.7822 45.0133 101.136C48.372 105.49 52.9226 108.805 58.128 110.689C63.3334 112.574 68.9765 112.95 74.3912 111.772C79.8059 110.594 84.7663 107.913 88.6869 104.043C92.6076 100.174 95.3249 95.2783 96.5181 89.9344C97.7113 84.5905 97.3307 79.0212 95.4212 73.8838C93.5117 68.7464 90.1529 64.2553 85.7413 60.9406C81.3297 57.6258 76.0493 55.6257 70.5234 55.1763V43.6484C70.5234 43.0227 70.2715 42.4226 69.8232 41.9801C69.3749 41.5377 68.7668 41.2891 68.1328 41.2891ZM68.1328 77.8594C69.3149 77.8594 70.4704 78.2053 71.4532 78.8534C72.4361 79.5016 73.2021 80.4228 73.6544 81.5006C74.1068 82.5784 74.2251 83.7644 73.9945 84.9085C73.7639 86.0527 73.1947 87.1037 72.3589 87.9286C71.523 88.7536 70.4581 89.3153 69.2988 89.5429C68.1394 89.7705 66.9378 89.6537 65.8457 89.2073C64.7536 88.7608 63.8202 88.0048 63.1635 87.0348C62.5068 86.0648 62.1562 84.9244 62.1562 83.7578C62.1562 82.1935 62.7859 80.6932 63.9067 79.587C65.0276 78.4808 66.5477 77.8594 68.1328 77.8594ZM92.4178 83.7578C92.4183 89.9098 90.0216 95.8263 85.724 100.282C81.4264 104.739 75.5571 107.393 69.3312 107.696C63.1053 107.999 56.9997 105.928 52.2785 101.911C47.5573 97.8943 44.5821 92.2393 43.9689 86.1172H57.652C58.0786 87.9671 58.9998 89.6703 60.3197 91.0495C61.6397 92.4287 63.3101 93.4335 65.1571 93.9593C67.0041 94.4851 68.9601 94.5126 70.8216 94.039C72.683 93.5655 74.3818 92.6081 75.7411 91.2666C77.1003 89.9251 78.0704 88.2485 78.5502 86.4114C79.0301 84.5743 79.0022 82.6438 78.4694 80.821C77.9367 78.9981 76.9185 77.3495 75.5211 76.0468C74.1236 74.7442 72.3978 73.835 70.5234 73.414V59.9097C76.5178 60.502 82.0761 63.2692 86.1211 67.6752C90.1662 72.0812 92.41 77.8122 92.4178 83.7578Z" fill="black"/>
</g>
<defs>
<clipPath id="clip0_63_286">
<rect width="153" height="151" fill="none"/>
</clipPath>
</defs>
</svg>
