<svg version="1.1" xmlns="http://www.w3.org/2000/svg" xmlns:xlink="http://www.w3.org/1999/xlink" width="153" height="140" viewBox="0,0,256,234.23611"><g fill="none" fill-rule="nonzero" stroke="#000000" stroke-width="2.09668" stroke-linecap="butt" stroke-linejoin="miter" stroke-miterlimit="10" stroke-dasharray="" stroke-dashoffset="0" font-family="none" font-weight="none" font-size="none" text-anchor="none" style="mix-blend-mode: normal"><g transform="translate(0.20269,0.82176) scale(1.6732,1.6732)"><g id="design-icom 1"><g id="_x31_9_x5F_responsive_x5F_design"><g id="Group"><g id="Group_2"><path d="M93.0869,116.669v19.859" id="Vector"></path><path d="M64.4448,136.528v-19.859" id="Vector_2"></path><path d="M57.2842,136.528h42.9628" id="Vector_3"></path><path d="M57.2842,96.8105h52.5108" id="Vector_4"></path><path d="M76.3789,106.74h4.7737" id="Vector_5"></path><path d="M11.9341,49.6465v-37.2349h128.8899v57.0934" id="Vector_6"></path><path d="M50.1235,12.4116v37.2349" id="Vector_7"></path><path d="M11.9341,37.2349h128.8899" id="Vector_8"></path><path d="M78.7661,12.4116v74.4697" id="Vector_9"></path><path d="M107.408,12.4116v74.4697h-50.1238" id="Vector_10"></path><path d="M109.795,116.669h-52.5108" id="Vector_11"></path><path d="M2.38672,49.6465v-44.68176c0,-1.37272 1.06931,-2.48232 2.38685,-2.48232h143.21043c1.32,0 2.387,1.1096 2.387,2.48232v64.54036" id="Vector_12"></path></g><g id="Group_3"><path d="M50.1237,116.669h-47.73698" id="Vector_13"></path><path d="M50.1237,134.046c0,1.372 -1.0693,2.482 -2.3869,2.482h-42.96323c-1.31754,0 -2.38685,-1.11 -2.38685,-2.482v-74.4699c0,-1.3728 1.06931,-2.4823 2.38685,-2.4823h42.96323c1.3176,0 2.3869,1.1095 2.3869,2.4823z" id="Vector_14"></path><path d="M21.4814,67.0225v49.6465" id="Vector_15"></path><path d="M2.38672,81.9165h47.73698" id="Vector_16"></path></g><path d="M2.38672,67.0229h47.73698" id="Vector_17"></path><path d="M150.371,134.046c0,1.372 -1.066,2.482 -2.386,2.482h-28.643c-1.32,0 -2.386,-1.11 -2.386,-2.482v-54.6115c0,-1.3728 1.066,-2.4824 2.386,-2.4824h28.643c1.32,0 2.386,1.1096 2.386,2.4824z" id="Vector_18"></path><path d="M124.116,116.669h19.095" id="Vector_19"></path><path d="M116.956,126.599h33.415" id="Vector_20"></path><path d="M19.0947,126.599h14.3211" id="Vector_21"></path><path d="M124.116,96.8105h19.095" id="Vector_22"></path><path d="M124.116,106.74h19.095" id="Vector_23"></path><path d="M116.956,86.8813h33.415" id="Vector_24"></path></g></g></g></g></g></svg>