<svg version="1.1" xmlns="http://www.w3.org/2000/svg" xmlns:xlink="http://www.w3.org/1999/xlink" width="80" height="82" viewBox="0,0,249.75,256"><g transform="translate(3.74625,3.84) scale(0.97,0.97)"><g fill="none" fill-rule="nonzero" stroke="#000000" stroke-width="3.67318" stroke-linecap="butt" stroke-linejoin="miter" stroke-miterlimit="10" stroke-dasharray="" stroke-dashoffset="0" font-family="none" font-weight="none" font-size="none" text-anchor="none" style="mix-blend-mode: normal"><g transform="translate(4.49062,-0.48985) scale(3.12195,3.12195)"><path d="M68.5739,27.3604v-4.8101l-5.8539,-0.4713c-0.4109,-2.0783 -1.2026,-4.0245 -2.3087,-5.7683l3.9099,-4.456l-4.6562,-4.49267l-4.4829,3.65947c-1.7568,-1.15205 -3.7357,-2.00792 -5.862,-2.50034l-0.5024,-5.82145h-6.5865l-0.4878,5.64715c-2.1539,0.3955 -4.1733,1.15914 -5.9804,2.22684l-4.6206,-3.77209l-4.6578,4.49189l3.7948,4.3239c-1.1944,1.6938 -2.0817,3.6025 -2.5931,5.6534l-6.0346,0.4854l-0.0008,5.6042"></path><path d="M36.0025,27.3616c-0.1564,-0.6534 -0.2471,-1.3311 -0.2471,-2.0314c0,-4.9852 4.1895,-9.0245 9.3562,-9.0245c5.1676,0 9.3571,4.0393 9.3571,9.0245c0,0.7003 -0.09,1.378 -0.2472,2.0314"></path><path d="M19.7011,79.6141c4.3018,0 7.7891,-3.3636 7.7891,-7.5129c0,-4.1492 -3.4873,-7.5128 -7.7891,-7.5128c-4.3017,0 -7.789,3.3636 -7.789,7.5128c0,4.1493 3.4873,7.5129 7.789,7.5129z"></path><path d="M66.1184,72.1012c0,4.1481 -3.4844,7.5129 -7.789,7.5129c-4.3037,0 -7.7874,-3.3656 -7.7874,-7.5129c0,-4.1488 3.4845,-7.5128 7.7874,-7.5128c4.3046,-0.0008 7.789,3.364 7.789,7.5128z"></path><path d="M28.5923,72.1011h21.9498"></path><path d="M0.51074,19.1353l10.46726,2.8818l12.2151,35.3375l-2.2552,7.0134"></path><path d="M69.5467,55.0733c0,1.3287 -1.1151,2.2815 -2.4935,2.2815h-43.8599l-8.4745,-26.1199h61.8917z"></path><path d="M25.7764,39.8979h40.189"></path><path d="M28.5796,48.3115h34.737"></path></g></g></g></svg>