<svg xmlns="http://www.w3.org/2000/svg" width="1024" height="1024" viewBox="0 0 1024 1024">
<g>
<path d="M 184.50,986.01 C175.78,984.95 170.38,983.27 162.62,979.22 C146.77,970.92 134.99,954.73 132.48,937.77 C131.81,933.25 131.55,932.94 126.50,930.63 C117.75,926.62 106.02,918.11 96.28,908.69 C71.02,884.25 58.13,850.65 61.76,818.74 C63.38,804.56 65.22,798.08 70.94,786.50 C82.57,762.94 103.05,744.40 129.38,733.59 L 133.26,731.99 L 122.88,721.21 C109.86,707.69 101.44,695.85 93.92,680.50 C82.98,658.16 78.77,640.38 78.74,616.50 C78.72,599.99 80.76,586.81 85.49,572.90 C95.83,542.47 116.33,517.22 144.00,500.82 C148.68,498.04 152.65,495.64 152.83,495.48 C153.01,495.31 152.38,492.44 151.45,489.09 C150.26,484.87 149.24,483.00 148.12,482.98 C147.23,482.98 132.51,485.73 115.41,489.11 C87.27,494.67 84.04,495.13 81.50,493.88 C72.04,489.25 71.85,475.67 81.18,470.91 C85.33,468.79 102.49,464.97 128.19,460.45 C136.82,458.94 144.35,457.40 144.93,457.04 C145.63,456.61 145.73,453.87 145.24,448.95 L 144.50,441.50 L 114.00,441.00 C87.03,440.56 83.20,440.30 80.90,438.74 C74.25,434.21 74.42,422.32 81.22,417.56 C83.12,416.23 87.94,416.00 114.09,416.00 L 144.73,416.00 L 145.36,411.36 C145.71,408.81 146.00,405.30 146.00,403.55 L 146.00,400.38 L 119.25,393.52 C83.60,384.37 80.17,383.29 77.40,380.29 C73.03,375.58 73.07,367.38 77.48,362.62 C82.36,357.35 84.02,357.53 123.27,367.49 C138.00,371.23 150.30,374.04 150.60,373.73 C150.90,373.43 152.26,367.70 153.62,361.00 C157.10,343.84 163.86,320.91 170.30,304.48 L 175.79,290.47 L 174.95,279.48 C170.36,219.91 182.64,148.09 204.27,108.00 C212.64,92.48 218.40,86.99 227.77,85.60 C237.10,84.22 264.25,91.86 289.75,103.04 C317.31,115.12 341.40,129.88 367.79,150.86 L 382.08,162.21 L 396.84,158.08 C429.76,148.85 455.45,145.85 490.50,147.12 C517.04,148.08 538.15,151.60 561.93,159.03 C567.15,160.67 571.98,162.00 572.66,162.00 C573.34,162.00 579.88,157.03 587.20,150.95 C624.29,120.13 664.76,98.70 705.42,88.32 C722.26,84.02 732.18,85.17 738.71,92.17 C743.08,96.86 750.68,110.88 755.73,123.56 C765.30,147.62 770.86,169.03 775.69,200.50 C778.33,217.66 778.46,220.22 778.50,255.50 L 778.55,292.50 L 783.40,303.43 C789.85,317.95 797.06,340.29 801.04,358.05 C802.82,366.00 804.60,372.87 805.01,373.32 C805.41,373.78 819.71,370.51 836.77,366.08 C870.32,357.35 871.85,357.19 876.96,361.96 C883.03,367.63 881.28,378.74 873.77,382.31 C871.89,383.20 858.24,387.12 843.43,391.03 C828.62,394.94 814.72,398.67 812.55,399.32 L 808.60,400.50 L 808.88,406.37 C809.39,417.09 807.02,416.24 835.56,415.90 C868.88,415.50 868.30,415.47 871.85,417.57 C877.95,421.18 879.82,431.18 875.33,436.22 C871.39,440.65 868.67,441.00 838.62,441.00 L 810.17,441.00 L 809.46,448.61 C808.62,457.57 808.48,457.41 818.47,459.05 C833.01,461.44 870.47,469.18 872.44,470.19 C876.11,472.08 878.92,475.22 880.08,478.73 C881.70,483.67 879.09,490.16 874.28,493.14 C870.09,495.72 872.49,496.03 834.00,488.07 C820.52,485.28 808.33,483.00 806.91,483.00 C804.58,483.00 804.19,483.56 803.07,488.58 C802.38,491.65 801.97,494.28 802.16,494.44 C802.35,494.60 806.28,496.89 810.89,499.53 C846.43,519.88 868.80,550.90 876.66,590.73 C879.08,603.01 879.09,630.24 876.67,642.35 C870.92,671.12 857.72,696.71 836.47,720.29 C831.12,726.23 827.01,731.34 827.32,731.65 C827.63,731.97 831.29,733.70 835.44,735.51 C854.42,743.76 874.57,761.23 884.98,778.46 C908.51,817.43 902.02,868.18 868.85,904.47 C860.14,914.01 842.18,926.97 831.52,931.43 C828.51,932.69 828.11,933.39 826.56,940.36 C823.95,952.13 819.85,959.34 810.58,968.50 C802.04,976.94 794.93,981.18 783.50,984.64 C777.77,986.37 764.41,986.46 484.00,986.60 C322.57,986.68 187.80,986.42 184.50,986.01 M 776.93,956.43 C786.18,953.82 794.94,946.38 796.55,939.75 L 797.22,937.00 L 479.59,937.00 L 161.97,937.00 L 163.54,940.75 C166.37,947.54 173.99,953.95 182.32,956.56 C185.72,957.62 241.28,957.88 478.93,957.93 C741.79,957.99 771.93,957.84 776.93,956.43 M 172.14,907.25 C172.22,904.64 172.19,899.58 172.07,896.01 C171.88,889.92 171.65,889.34 168.41,886.66 C162.30,881.63 160.72,877.11 161.20,866.08 C161.66,855.32 163.97,848.71 169.10,843.41 C171.67,840.75 172.17,839.31 172.68,833.27 C173.51,823.36 172.85,821.40 168.44,820.68 C166.46,820.36 162.90,818.96 160.52,817.57 C150.17,811.50 147.66,793.20 156.38,787.48 C159.02,785.76 167.50,785.73 171.28,787.43 C172.94,788.18 173.03,787.26 172.78,772.37 L 172.50,756.50 L 168.15,756.19 C165.76,756.02 160.72,756.35 156.95,756.94 C126.04,761.74 101.79,781.66 92.80,809.65 C89.55,819.75 89.57,838.54 92.84,848.95 C95.50,857.42 101.40,869.57 105.74,875.52 C121.36,896.91 145.99,911.61 166.75,911.92 L 172.00,912.00 L 172.14,907.25 M 806.39,910.03 C834.87,902.74 858.88,878.42 867.60,848.02 C870.02,839.57 870.21,837.67 869.73,826.63 C869.03,810.47 865.07,799.46 855.49,787.00 C841.33,768.57 819.99,757.55 796.99,756.78 L 788.50,756.50 L 788.22,771.62 L 787.95,786.74 L 794.76,786.25 C801.02,785.80 801.82,785.97 804.70,788.40 C810.97,793.68 810.84,805.13 804.42,813.65 C801.73,817.23 794.68,821.00 790.68,821.00 L 788.00,821.00 L 788.00,830.47 C788.00,839.56 788.12,840.06 791.01,843.36 C795.76,848.77 798.18,855.37 798.74,864.42 C799.39,875.05 797.88,880.46 792.98,885.13 C788.77,889.14 788.51,890.34 788.82,904.25 L 789.00,912.00 L 793.84,912.00 C796.50,912.00 802.15,911.11 806.39,910.03 M 237.34,889.06 C241.29,887.56 244.00,883.98 244.00,880.26 C244.00,871.13 234.85,865.07 227.97,869.65 C223.99,872.30 223.00,874.11 223.00,878.79 C223.00,882.47 223.56,883.76 226.40,886.60 C229.93,890.13 232.82,890.78 237.34,889.06 M 574.59,885.69 C579.75,879.69 576.33,870.45 568.47,869.16 C566.29,868.80 498.58,868.52 418.00,868.56 C281.55,868.61 271.32,868.73 268.90,870.32 C261.29,875.33 263.85,886.99 272.98,888.86 C274.70,889.21 342.71,889.27 424.13,889.00 L 572.17,888.50 L 574.59,885.69 M 698.13,888.43 C704.26,885.26 705.14,876.43 699.83,871.34 C697.47,869.08 695.95,868.50 692.35,868.50 C688.51,868.50 687.40,868.99 684.92,871.77 C680.05,877.21 681.09,884.25 687.31,888.05 C691.18,890.40 694.12,890.51 698.13,888.43 M 739.09,887.72 C745.56,883.36 745.56,874.63 739.10,870.28 C734.98,867.51 731.51,867.39 727.42,869.89 C720.41,874.16 720.72,884.29 727.98,888.15 C732.56,890.58 734.99,890.48 739.09,887.72 M 660.13,887.27 C666.13,883.72 666.06,875.21 660.00,870.90 C657.01,868.78 655.46,868.69 623.81,868.87 C599.73,869.00 599.05,869.06 596.49,871.25 C594.73,872.77 593.69,874.88 593.31,877.72 C592.79,881.57 593.06,882.26 596.27,885.47 L 599.80,889.00 L 628.50,889.00 C653.92,889.00 657.53,888.80 660.13,887.27 M 236.68,844.93 C241.74,843.02 244.00,840.08 244.00,835.40 C244.00,827.36 236.23,822.00 228.94,825.02 C224.84,826.72 223.00,829.66 223.00,834.50 C223.00,839.35 225.13,842.72 229.38,844.56 C233.23,846.24 233.24,846.24 236.68,844.93 M 700.30,816.61 C714.50,812.05 729.46,799.55 735.76,787.00 C742.61,773.34 743.35,760.93 738.52,740.21 C727.77,694.04 724.79,682.44 722.39,677.33 C718.65,669.39 708.97,659.81 700.83,656.01 C685.91,649.04 668.26,650.76 655.03,660.48 C644.58,668.15 640.62,675.82 633.42,702.31 C630.41,713.41 626.27,728.35 624.24,735.50 C620.95,747.07 620.54,749.77 620.53,760.00 C620.51,774.02 622.69,781.38 630.20,792.60 C638.23,804.61 649.93,813.03 664.00,816.93 C670.24,818.66 673.51,818.94 683.50,818.58 C690.36,818.33 697.56,817.49 700.30,816.61 M 237.34,810.06 C244.24,807.44 246.33,798.92 241.47,793.15 C238.43,789.54 234.24,788.43 229.51,790.00 C224.99,791.49 223.00,794.42 223.00,799.59 C223.00,807.65 230.08,812.82 237.34,810.06 M 421.57,808.54 C425.66,806.83 428.47,801.40 427.51,797.04 C426.82,793.90 422.59,789.55 419.23,788.54 C417.99,788.16 415.41,788.37 413.50,789.00 C404.00,792.13 403.29,804.61 412.38,808.56 C416.39,810.31 417.33,810.31 421.57,808.54 M 386.67,806.40 C392.03,802.40 391.97,794.18 386.57,790.63 C383.51,788.63 383.32,788.63 323.67,788.82 L 270.85,789.00 L 267.92,791.92 C262.85,796.99 264.53,804.57 271.38,807.58 C273.92,808.69 284.66,808.91 329.18,808.72 C383.00,808.50 383.90,808.47 386.67,806.40 M 477.22,807.96 C484.48,805.94 486.54,797.39 481.08,791.92 L 478.15,789.00 L 465.00,789.00 L 451.85,789.00 L 448.92,791.92 C447.07,793.78 446.00,795.88 446.00,797.67 C446.01,801.95 449.42,806.78 453.21,807.87 C457.71,809.17 472.67,809.22 477.22,807.96 M 240.93,772.25 C245.40,768.10 245.46,761.31 241.08,756.92 C238.63,754.47 237.35,754.00 233.17,754.00 C228.82,754.00 227.84,754.40 225.59,757.08 C221.07,762.44 222.48,770.53 228.50,773.84 C232.28,775.92 237.73,775.22 240.93,772.25 M 438.02,769.49 C441.66,767.61 443.00,765.18 443.00,760.47 C443.00,757.65 442.28,756.13 439.88,753.88 L 436.75,750.97 L 353.96,751.23 L 271.16,751.50 L 268.68,753.83 C264.13,758.10 264.60,764.47 269.78,768.75 L 272.50,770.99 L 353.80,771.00 C424.36,771.00 435.48,770.80 438.02,769.49 M 240.48,735.42 C246.28,731.62 245.51,722.12 239.03,717.69 C232.14,712.99 223.00,717.84 223.00,726.20 C223.00,735.78 232.38,740.73 240.48,735.42 M 336.08,730.23 C340.16,725.67 340.09,720.82 335.89,716.90 L 332.79,714.00 L 302.00,714.00 L 271.21,714.00 L 268.11,716.90 C265.77,719.08 265.00,720.67 265.00,723.32 C265.00,727.39 268.81,732.61 272.28,733.32 C273.50,733.57 287.70,733.71 303.83,733.63 L 333.17,733.50 L 336.08,730.23 M 395.46,732.45 C401.56,729.56 402.83,722.17 398.10,717.11 L 395.20,714.00 L 378.02,714.00 L 360.85,714.00 L 357.92,716.92 C354.00,720.85 353.85,726.58 357.58,730.30 C360.84,733.56 361.62,733.70 378.35,733.86 C389.00,733.97 392.95,733.64 395.46,732.45 M 172.36,722.25 C172.70,720.19 172.98,694.81 172.99,665.84 L 173.00,613.19 L 169.54,609.05 C152.71,588.90 155.01,558.75 175.33,533.11 C194.68,508.70 226.71,495.95 258.77,499.90 C278.79,502.37 294.10,509.90 308.57,524.41 C315.86,531.72 318.53,535.26 322.21,542.50 C324.73,547.45 327.57,554.31 328.53,557.75 L 330.26,564.00 L 473.99,564.00 L 617.72,564.00 L 619.97,556.11 C623.58,543.41 628.91,534.88 640.39,523.38 C649.22,514.54 651.70,512.67 660.00,508.66 C674.18,501.80 684.42,499.57 701.50,499.60 C712.52,499.62 717.42,500.10 724.50,501.85 C747.43,507.50 765.98,520.72 779.12,540.79 C787.78,554.02 791.51,567.65 790.69,583.00 C790.41,588.23 789.66,593.84 789.03,595.48 C788.19,597.65 787.93,615.79 788.10,661.68 C788.31,719.06 788.47,724.81 789.91,724.03 C790.79,723.55 793.98,721.06 797.00,718.50 C816.20,702.25 835.32,677.05 841.69,659.60 C860.64,607.69 845.89,557.60 803.15,528.77 C795.60,523.67 781.82,516.73 776.75,515.47 C772.65,514.45 769.00,509.58 769.02,505.17 C769.03,503.15 770.61,497.04 772.52,491.58 C776.62,479.90 776.75,478.39 773.75,477.75 C772.51,477.49 765.65,476.03 758.50,474.51 C751.35,473.00 744.69,471.33 743.70,470.81 C741.30,469.56 738.01,464.05 738.00,461.28 C738.00,457.31 741.20,452.13 744.68,450.48 C747.77,449.02 749.06,449.05 761.89,450.95 C780.96,453.77 780.61,453.80 781.36,449.25 C782.80,440.55 783.38,441.00 770.75,440.99 C756.74,440.99 752.53,439.91 749.95,435.69 C747.16,431.11 747.44,426.65 750.75,422.96 C753.35,420.06 754.07,419.84 764.00,418.95 C769.77,418.43 776.24,417.73 778.36,417.39 C782.17,416.79 782.22,416.74 781.62,413.14 C781.29,411.14 781.02,408.66 781.01,407.64 C781.00,405.61 781.60,405.59 767.00,407.95 C758.02,409.39 754.90,408.53 752.00,403.77 C749.62,399.86 749.46,395.95 751.52,391.97 C753.46,388.22 756.34,386.81 767.82,384.01 L 777.13,381.74 L 776.49,377.62 C773.78,360.27 764.29,330.06 755.79,311.74 L 750.58,300.50 L 750.48,262.00 C750.36,220.34 749.93,215.21 744.07,186.18 C739.16,161.89 729.89,133.03 723.86,123.27 C719.10,115.56 714.65,115.35 695.14,121.87 C661.66,133.06 623.58,155.80 591.50,183.75 C578.14,195.39 575.88,195.92 562.23,190.60 C543.54,183.32 525.80,179.12 504.57,176.95 C486.95,175.15 451.00,176.20 435.00,178.98 C419.13,181.74 401.24,186.20 390.77,190.02 C380.77,193.67 374.67,193.89 370.35,190.75 C368.65,189.51 361.92,184.00 355.38,178.49 C323.63,151.75 290.08,132.51 256.05,121.55 C240.22,116.45 236.26,116.07 232.41,119.30 C221.77,128.26 206.61,183.05 203.03,225.50 C201.73,241.00 201.73,259.82 203.06,281.01 L 204.12,297.95 L 199.51,308.52 C191.44,327.06 185.55,345.36 181.52,364.45 C177.74,382.36 177.31,381.11 188.25,383.92 C199.60,386.83 202.17,388.07 204.01,391.52 C206.57,396.31 205.88,401.58 202.21,405.25 C199.27,408.19 198.46,408.48 193.62,408.27 C190.69,408.14 185.24,407.33 181.52,406.47 C177.81,405.61 174.63,405.04 174.46,405.21 C174.29,405.37 174.01,408.20 173.83,411.50 L 173.50,417.49 L 187.22,418.55 C199.47,419.49 201.22,419.86 203.46,421.96 C206.89,425.19 207.63,429.88 205.42,434.53 C202.87,439.90 199.41,441.00 185.05,441.00 L 173.03,441.00 L 173.66,447.25 C174.00,450.69 174.45,453.70 174.66,453.94 C174.88,454.18 182.48,453.14 191.57,451.62 C207.81,448.91 208.14,448.90 211.29,450.71 C215.99,453.42 218.39,458.83 217.07,463.76 C215.25,470.49 213.27,471.49 194.66,475.04 L 177.83,478.25 L 178.46,481.66 C178.82,483.53 180.65,489.08 182.55,494.00 C184.45,498.91 186.00,504.28 186.00,505.93 C186.00,509.60 180.93,515.74 177.14,516.65 C167.98,518.86 148.45,531.47 138.02,541.92 C117.74,562.22 108.00,586.66 108.00,617.22 C108.00,656.63 125.98,689.24 165.91,722.23 C168.41,724.31 170.75,726.00 171.10,726.00 C171.45,726.00 172.02,724.31 172.36,722.25 M 238.57,702.54 C246.02,699.42 246.70,688.22 239.70,683.96 C231.94,679.23 223.00,683.53 223.00,691.99 C223.00,697.18 224.27,699.58 228.31,702.05 C232.14,704.38 233.95,704.47 238.57,702.54 M 237.61,670.01 C238.23,670.01 239.91,668.81 241.36,667.36 C243.47,665.26 244.00,663.77 244.00,660.00 C244.00,654.11 241.31,650.34 236.46,649.43 C228.65,647.96 223.00,652.14 223.00,659.38 C223.00,666.47 228.30,671.55 234.50,670.40 C235.60,670.19 237.00,670.02 237.61,670.01 M 284.16,667.35 C286.40,665.20 287.00,663.74 287.00,660.39 C287.00,649.21 272.66,644.96 266.89,654.42 C264.59,658.18 264.53,660.21 266.57,664.51 C269.76,671.23 278.61,672.66 284.16,667.35 M 468.45,669.45 C475.82,665.96 476.54,655.13 469.69,650.95 C465.86,648.62 461.93,648.47 457.98,650.51 C454.31,652.41 453.00,654.83 453.00,659.71 C453.00,664.36 455.19,667.74 459.38,669.56 C463.43,671.33 464.54,671.31 468.45,669.45 M 514.90,667.55 C517.00,665.45 517.50,664.00 517.50,660.00 C517.50,653.77 514.34,650.12 508.26,649.31 C499.05,648.07 493.18,656.66 497.51,665.02 C500.79,671.37 509.78,672.68 514.90,667.55 M 555.69,669.05 C559.62,666.65 561.29,661.62 559.86,656.45 C558.69,652.22 554.07,649.01 549.15,649.00 C544.14,649.00 539.00,654.45 539.00,659.77 C539.00,668.69 548.04,673.71 555.69,669.05 M 428.02,668.49 C433.92,665.44 434.93,657.78 430.08,652.92 L 427.15,650.00 L 370.53,650.00 L 313.91,650.00 L 311.50,652.41 C306.61,657.30 307.49,664.50 313.42,668.11 C316.33,669.89 319.44,669.99 370.80,670.00 C417.28,670.00 425.52,669.78 428.02,668.49 M 240.30,597.00 C241.25,583.50 242.38,581.00 247.52,581.00 C253.90,581.00 255.00,583.28 255.00,596.50 C255.00,609.84 254.18,609.15 266.41,606.02 C275.87,603.60 282.76,599.97 289.45,593.86 C296.97,587.00 299.50,581.37 299.50,571.48 C299.50,564.47 299.09,562.63 296.29,556.93 C290.90,545.99 279.68,536.25 267.50,531.93 C259.08,528.95 241.06,528.19 231.60,530.42 C220.74,532.97 212.67,537.37 204.38,545.24 C194.23,554.88 189.80,563.68 189.24,575.31 C188.88,582.76 189.10,583.99 191.67,588.96 C193.23,591.96 194.99,594.56 195.59,594.73 C196.22,594.92 197.43,591.47 198.49,586.43 C200.59,576.41 203.50,572.00 208.02,572.00 C214.19,572.00 215.06,575.81 212.49,591.50 C210.59,603.02 210.62,603.72 212.93,604.96 C215.84,606.52 229.90,608.89 235.00,608.68 L 239.50,608.50 L 240.30,597.00 M 728.83,606.33 C732.98,605.44 736.39,604.16 736.69,603.36 C736.99,602.59 736.44,596.63 735.47,590.11 C733.49,576.67 733.87,573.32 737.52,572.41 C741.39,571.44 744.36,572.64 746.33,575.98 C748.35,579.39 752.00,591.76 752.00,595.17 C752.00,597.29 752.11,597.27 754.98,594.52 C759.55,590.14 761.35,584.33 760.80,575.75 C759.64,557.75 743.87,539.70 722.81,532.26 C712.23,528.53 696.56,527.96 684.98,530.89 C670.08,534.65 658.09,543.98 651.85,556.65 C648.89,562.67 648.50,564.38 648.52,571.48 C648.53,577.88 649.00,580.37 650.81,583.80 C656.20,593.97 667.44,602.22 680.98,605.94 C692.67,609.16 692.00,609.67 692.00,597.55 C692.00,591.69 692.51,585.96 693.17,584.52 C694.53,581.53 698.17,580.32 701.89,581.63 C705.48,582.89 706.88,587.57 706.94,598.58 C706.97,603.58 707.34,608.01 707.75,608.42 C708.72,609.40 719.51,608.33 728.83,606.33 M 867.50,341.09 C862.86,339.11 861.72,336.44 860.86,325.50 C859.65,309.92 856.92,306.89 843.51,306.27 C832.39,305.75 831.20,305.38 828.97,301.72 C826.50,297.66 826.47,293.38 828.90,289.39 C831.11,285.78 836.58,284.00 845.49,284.00 C852.12,284.00 856.41,282.05 858.44,278.11 C859.25,276.54 860.32,270.47 860.81,264.62 C861.79,252.87 862.78,250.89 868.62,248.96 C871.11,248.14 872.89,248.14 875.38,248.96 C881.29,250.91 882.23,252.84 883.18,265.07 C884.37,280.44 887.17,283.97 898.20,284.02 C909.42,284.07 915.24,287.12 916.44,293.56 C917.19,297.51 915.12,302.25 911.73,304.38 C910.47,305.17 905.63,306.00 900.63,306.28 C894.03,306.66 891.08,307.29 889.13,308.72 C884.95,311.78 883.00,316.67 883.00,324.12 C883.00,333.50 882.14,336.77 879.09,338.94 C875.89,341.21 870.25,342.26 867.50,341.09 M 95.52,323.61 C93.76,321.85 92.94,319.61 92.44,315.22 L 91.77,309.22 L 85.25,308.80 C79.95,308.47 78.39,307.96 76.87,306.08 C72.23,300.36 76.27,294.01 84.56,293.98 C87.28,293.98 90.06,293.62 90.74,293.18 C91.42,292.75 92.36,289.58 92.83,286.14 C93.80,279.03 95.58,276.67 99.94,276.67 C104.66,276.67 106.63,279.19 107.36,286.20 C107.72,289.57 108.15,292.49 108.33,292.67 C108.51,292.85 111.51,293.29 114.99,293.66 C122.20,294.41 125.00,296.43 125.00,300.89 C125.00,306.01 122.25,308.13 114.84,308.72 L 108.26,309.25 L 107.66,314.96 C106.89,322.35 106.40,323.50 103.40,324.86 C99.75,326.53 98.19,326.28 95.52,323.61 M 82.87,233.49 C79.33,231.57 78.86,230.12 77.99,218.64 C77.30,209.45 77.04,208.58 74.20,205.74 C71.43,202.97 70.33,202.62 62.32,201.91 C57.47,201.49 52.71,201.11 51.75,201.07 C46.92,200.88 43.13,192.03 45.46,186.43 C47.31,182.01 51.52,180.02 59.20,179.92 C74.06,179.74 77.07,176.79 78.05,161.42 C78.65,151.94 78.99,150.56 81.21,148.33 C86.11,143.44 96.78,144.67 98.95,150.38 C99.43,151.64 100.14,156.90 100.52,162.08 C101.58,176.43 103.75,178.66 117.54,179.53 C127.89,180.18 130.84,181.71 132.74,187.40 C133.75,190.40 133.73,191.71 132.65,194.30 C130.56,199.29 128.72,200.17 117.75,201.43 C102.40,203.19 101.05,204.56 100.02,219.38 C99.36,228.91 99.20,229.43 96.15,232.16 C92.54,235.38 87.31,235.90 82.87,233.49 M 856.43,211.70 C853.99,209.60 853.67,208.45 852.81,198.95 C852.17,191.85 851.30,187.70 850.11,186.00 C847.19,181.84 842.32,180.00 834.20,180.00 C826.41,180.00 821.82,178.40 820.03,175.06 C818.47,172.13 818.80,166.15 820.70,162.93 C822.87,159.26 826.57,158.00 835.25,158.00 C842.93,158.00 848.34,156.06 850.24,152.62 C850.89,151.45 851.95,145.57 852.60,139.54 C853.68,129.65 854.06,128.35 856.45,126.29 C859.60,123.58 865.61,123.23 870.00,125.50 C873.51,127.32 874.99,131.83 874.99,140.78 C875.01,153.70 878.49,157.08 892.77,158.02 C901.88,158.62 902.42,158.78 905.15,161.84 C909.35,166.55 909.15,172.05 904.60,176.60 C901.33,179.87 900.91,180.00 893.57,180.00 C885.37,180.00 880.64,181.44 877.57,184.89 C876.08,186.57 875.49,189.25 874.97,196.82 C874.59,202.20 873.77,207.56 873.14,208.75 C870.14,214.35 861.32,215.90 856.43,211.70 M 129.53,873.45 C120.79,870.44 116.76,861.30 120.36,852.67 C124.58,842.58 141.82,842.85 147.05,853.09 C150.09,859.05 149.40,866.06 145.38,870.08 C141.70,873.76 134.75,875.24 129.53,873.45 M 122.04,831.75 C116.49,828.90 114.00,824.38 114.00,817.15 C114.00,812.23 114.33,811.43 117.88,807.88 C121.29,804.47 122.34,804.00 126.48,804.00 C135.70,804.00 142.72,810.21 143.71,819.23 C144.28,824.47 141.23,829.61 135.98,832.25 C131.31,834.60 127.31,834.45 122.04,831.75 M 819.09,873.74 C814.49,872.06 811.82,868.14 811.25,862.22 C810.38,853.16 815.40,846.80 824.47,845.46 C833.88,844.07 841.00,849.90 841.00,859.00 C841.00,869.67 829.39,877.48 819.09,873.74 M 824.07,832.25 C814.14,827.18 813.99,813.92 823.79,806.57 C827.73,803.61 836.05,803.25 840.27,805.86 C844.53,808.49 846.00,811.69 846.00,818.31 C846.00,825.48 842.76,830.21 836.36,832.39 C830.37,834.44 828.31,834.41 824.07,832.25 M 669.91,800.56 C657.63,797.17 645.20,787.11 640.51,776.75 C635.61,765.93 635.19,751.98 639.44,741.80 C641.36,737.19 645.65,735.24 649.65,737.16 C654.12,739.31 654.89,741.95 653.37,750.00 C651.71,758.77 652.83,765.51 657.05,772.08 C662.77,781.00 675.52,787.06 685.22,785.49 C695.87,783.77 703.48,778.18 708.00,768.74 C711.73,760.97 712.69,760.00 716.62,760.00 C724.33,760.00 726.23,767.80 721.15,778.50 C718.05,785.01 711.33,791.96 703.97,796.28 C695.19,801.43 679.99,803.33 669.91,800.56 M 659.23,712.79 C657.98,712.18 656.67,710.54 656.32,709.15 C655.69,706.64 657.46,688.07 659.06,680.50 C660.09,675.57 663.05,672.92 666.48,673.84 C670.83,675.01 691.02,690.28 691.69,692.90 C692.76,697.14 692.10,697.73 675.35,707.55 C665.08,713.56 662.51,714.40 659.23,712.79 M 430.10,506.48 C412.73,501.60 401.07,487.85 400.17,471.19 C399.45,457.89 404.52,450.04 414.34,449.22 C419.21,448.82 420.03,449.06 423.06,451.76 C426.69,455.01 427.08,457.43 425.57,467.50 C424.91,471.83 425.13,472.97 427.18,476.00 C430.66,481.16 435.25,483.18 442.50,482.75 C455.53,481.97 464.69,473.43 466.45,460.41 C467.08,455.81 466.92,455.18 464.82,453.76 C461.09,451.26 453.98,444.02 451.91,440.63 C450.76,438.74 450.01,435.66 450.00,432.84 C450.00,428.88 450.45,427.80 453.03,425.63 C454.70,424.23 457.73,422.72 459.78,422.29 C466.15,420.94 498.04,421.34 502.23,422.82 C509.45,425.38 511.92,432.15 508.37,439.64 C507.47,441.53 503.60,445.94 499.76,449.44 L 492.79,455.81 L 493.51,460.15 C495.66,473.23 504.36,481.59 517.00,482.73 C526.90,483.63 534.83,478.40 535.10,470.78 C535.14,469.53 534.85,466.15 534.46,463.28 C533.57,456.94 534.96,453.04 538.95,450.69 C545.51,446.82 553.72,449.62 558.01,457.20 C559.99,460.70 560.45,462.91 560.46,469.08 C560.47,475.83 560.07,477.48 556.73,484.24 C548.22,501.45 531.14,510.23 511.95,507.26 C501.45,505.64 493.35,501.28 486.07,493.34 L 480.03,486.75 L 475.27,492.04 C469.78,498.15 462.66,502.95 455.50,505.38 C448.29,507.82 436.67,508.33 430.10,506.48 M 310.92,461.54 C277.87,453.16 257.60,419.36 265.97,386.61 C268.47,376.85 273.70,366.86 280.03,359.76 C299.30,338.14 334.21,334.14 358.65,350.76 C375.88,362.47 385.55,379.26 386.72,399.50 C388.27,426.21 370.34,451.67 344.00,460.14 C335.61,462.85 318.85,463.55 310.92,461.54 M 313.79,398.10 C327.14,391.25 329.52,373.91 318.44,364.16 C312.32,358.76 306.10,357.25 298.80,359.37 C286.33,363.00 279.71,377.77 285.53,389.00 C287.26,392.33 292.89,397.65 296.00,398.88 C300.33,400.60 309.72,400.18 313.79,398.10 M 618.79,461.51 C601.67,457.17 586.04,444.34 578.55,428.50 C574.12,419.12 572.99,413.86 572.92,402.26 C572.83,384.42 577.89,372.06 590.46,359.40 C596.83,352.98 600.26,350.45 607.00,347.16 C630.98,335.47 658.20,339.48 675.77,357.30 C682.95,364.57 688.02,372.66 691.21,381.87 C693.16,387.51 693.49,390.44 693.44,401.50 C693.38,412.90 693.06,415.38 690.78,421.65 C684.09,440.08 670.09,453.94 652.00,460.04 C643.59,462.87 627.03,463.61 618.79,461.51 M 664.12,397.90 C683.18,388.37 675.12,358.59 653.50,358.62 C638.22,358.65 628.51,374.48 635.13,388.56 C640.08,399.08 653.27,403.33 664.12,397.90 M 231.36,273.95 C226.06,270.56 225.63,268.17 226.32,245.69 C227.11,219.35 229.62,202.67 237.15,173.50 C240.60,160.16 241.70,157.54 245.24,154.23 C251.13,148.73 257.74,149.35 273.50,156.88 C292.63,166.01 311.57,179.18 328.20,194.92 C338.59,204.75 341.62,209.82 340.44,215.39 C339.39,220.35 335.43,224.81 331.01,226.00 C325.38,227.51 321.44,225.55 312.20,216.62 C302.94,207.67 297.47,203.32 283.27,193.64 C272.78,186.48 265.03,182.00 263.15,182.00 C262.06,182.00 257.61,204.55 255.44,221.00 C254.61,227.32 253.58,239.97 253.15,249.09 C252.46,263.61 252.09,266.12 250.16,269.23 C246.18,275.68 237.47,277.87 231.36,273.95 M 705.67,271.01 C701.45,267.31 700.28,263.04 699.51,248.50 C698.77,234.75 696.39,213.16 694.38,202.00 C692.86,193.52 690.11,181.79 689.50,181.17 C689.01,180.67 669.27,192.76 662.17,197.91 C653.24,204.39 644.52,211.48 637.21,218.21 C631.04,223.90 629.51,224.55 623.50,224.05 C619.32,223.71 617.20,222.38 614.95,218.69 C612.66,214.93 612.44,209.97 614.41,206.20 C616.15,202.85 630.12,189.27 639.50,181.81 C654.92,169.53 680.47,154.66 691.83,151.36 C701.66,148.50 708.31,151.87 711.93,161.54 C716.21,172.98 721.82,198.41 723.98,216.16 C725.71,230.34 726.94,259.15 726.03,263.97 C724.81,270.45 720.56,274.00 714.02,274.00 C709.95,274.00 708.46,273.47 705.67,271.01 Z" fill="#ffffff"/>
</g>
</svg>