<svg width="160" height="80" viewBox="0 0 160 80" fill="none" xmlns="http://www.w3.org/2000/svg">
<mask id="mask0_810_1967" style="mask-type:luminance" maskUnits="userSpaceOnUse" x="51" y="18" width="31" height="26">
<path d="M51.6562 18.667H81.3333V43.9795H51.6562V18.667Z" fill="white"/>
</mask>
<g mask="url(#mask0_810_1967)">
<path d="M70.849 36.7038V40.1413L55.1354 32.9017V30.11L70.849 22.8757V26.3132L58.9688 31.4746V31.5423L70.849 36.7038ZM80.1823 19.0527H53.9063C52.6615 19.0527 51.6562 20.0475 51.6562 21.2767V41.7402C51.6562 42.9694 52.6615 43.9642 53.9063 43.9642H72.8854L80.1823 19.0527Z" fill="#0652E9"/>
</g>
<mask id="mask1_810_1967" style="mask-type:luminance" maskUnits="userSpaceOnUse" x="80" y="5" width="29" height="27">
<path d="M80 5.97949H108.656V32.0003H80V5.97949Z" fill="white"/>
</mask>
<g mask="url(#mask1_810_1967)">
<path d="M105.183 19.9323L89.4691 27.0781V23.6354L101.615 18.474V18.4115L89.4691 13.2448V9.80729L105.183 16.9479V19.9323ZM87.4743 5.98438L80.1826 30.901H106.412C107.657 30.901 108.662 29.901 108.662 28.6719V8.20833C108.662 6.97917 107.657 5.98438 106.412 5.98438H87.4743Z" fill="#E6CE65"/>
</g>
<path d="M32.6592 50.5615H26.3467V52.2646H28.5602V59.2907H30.4613V52.2646H32.6592V50.5615Z" fill="white"/>
<path d="M39.2813 52.249V50.5615H34.0312V59.2907H39.2813V57.6032H35.9479V55.7699H38.8021V54.0824H35.9479V52.249H39.2813Z" fill="white"/>
<path d="M45.4102 59.4056C47.1393 59.4056 48.6393 58.4316 49.3789 57.0098L47.7227 56.1504C47.3008 56.9785 46.4414 57.5306 45.4102 57.5306C43.9362 57.5306 42.8164 56.3952 42.8164 54.9264C42.8164 53.4577 43.9362 52.3223 45.4102 52.3223C46.4414 52.3223 47.3008 52.8743 47.7227 53.7077L49.3789 52.8483C48.6393 51.4212 47.1393 50.4473 45.4102 50.4473C42.9362 50.4473 40.9258 52.4525 40.9258 54.9264C40.9258 57.4004 42.9362 59.4056 45.4102 59.4056Z" fill="white"/>
<path d="M56.5967 50.5615V54.0667H53.0446V50.5615H51.1279V59.2907H53.0446V55.7699H56.5967V59.2907H58.5029V50.5615H56.5967Z" fill="white"/>
<path d="M68.9111 59.4056C70.6403 59.4056 72.1403 58.4316 72.8799 57.0098L71.2236 56.1504C70.8018 56.9785 69.9424 57.5306 68.9111 57.5306C67.4372 57.5306 66.3174 56.3952 66.3174 54.9264C66.3174 53.4577 67.4372 52.3223 68.9111 52.3223C69.9424 52.3223 70.8018 52.8743 71.2236 53.7077L72.8799 52.8483C72.1403 51.4212 70.6403 50.4473 68.9111 50.4473C66.4372 50.4473 64.4268 52.4525 64.4268 54.9264C64.4268 57.4004 66.4372 59.4056 68.9111 59.4056Z" fill="white"/>
<path d="M78.79 59.4056C81.2744 59.4056 83.2692 57.4004 83.2692 54.9264C83.2692 52.4525 81.2744 50.4473 78.79 50.4473C76.3161 50.4473 74.3057 52.4525 74.3057 54.9264C74.3057 57.4004 76.3161 59.4056 78.79 59.4056ZM78.79 57.5306C77.3161 57.5306 76.1963 56.3952 76.1963 54.9264C76.1963 53.4577 77.3161 52.3223 78.79 52.3223C80.2692 52.3223 81.3942 53.4577 81.3942 54.9264C81.3942 56.3952 80.2692 57.5306 78.79 57.5306Z" fill="white"/>
<path d="M87.8799 59.4056C89.5101 59.4056 90.8955 58.4473 90.8955 56.8171C90.8955 53.5879 86.8799 54.39 86.8799 52.8743C86.8799 52.3796 87.2549 52.1504 87.7236 52.1504C88.2184 52.1504 88.7132 52.4264 89.1455 52.9056L90.4268 51.6816C89.7861 50.9421 88.8122 50.4473 87.7393 50.4473C86.3538 50.4473 84.9424 51.2754 84.9424 53.0202C84.9424 55.9889 88.9736 55.2754 88.9736 56.8014C88.9736 57.2858 88.5674 57.6035 87.8955 57.6035C87.0986 57.6035 86.4736 57.1504 86.1507 56.4681L84.5674 57.4577C85.1351 58.5514 86.3538 59.4056 87.8799 59.4056Z" fill="white"/>
<path d="M95.2861 59.4056C96.9163 59.4056 98.3018 58.4473 98.3018 56.8171C98.3018 53.5879 94.2861 54.39 94.2861 52.8743C94.2861 52.3796 94.6611 52.1504 95.1299 52.1504C95.6247 52.1504 96.1195 52.4264 96.5518 52.9056L97.833 51.6816C97.1924 50.9421 96.2184 50.4473 95.1455 50.4473C93.7601 50.4473 92.3486 51.2754 92.3486 53.0202C92.3486 55.9889 96.3799 55.2754 96.3799 56.8014C96.3799 57.2858 95.9736 57.6035 95.3018 57.6035C94.5049 57.6035 93.8799 57.1504 93.557 56.4681L91.9736 57.4577C92.5413 58.5514 93.7601 59.4056 95.2861 59.4056Z" fill="white"/>
<path d="M105.344 59.2907H107.396L104.251 50.5615H102.1L98.959 59.2907H101.006L101.548 57.6449H104.803L105.344 59.2907ZM102.058 56.0459L103.178 52.5824L104.298 56.0459H102.058Z" fill="white"/>
<path d="M112.738 59.4056C114.467 59.4056 115.967 58.4316 116.707 57.0098L115.051 56.1504C114.629 56.9785 113.77 57.5306 112.738 57.5306C111.264 57.5306 110.145 56.3952 110.145 54.9264C110.145 53.4577 111.264 52.3223 112.738 52.3223C113.77 52.3223 114.629 52.8743 115.051 53.7077L116.707 52.8483C115.967 51.4212 114.467 50.4473 112.738 50.4473C110.264 50.4473 108.254 52.4525 108.254 54.9264C108.254 57.4004 110.264 59.4056 112.738 59.4056Z" fill="white"/>
<path d="M123.909 59.2907H126.472L122.269 54.4469L126.034 50.5615H123.56L120.711 53.6449H120.373V50.5615H118.456V59.2907H120.373V55.3063H120.654L123.909 59.2907Z" fill="white"/>
<path d="M130.224 59.4056C131.854 59.4056 133.239 58.4473 133.239 56.8171C133.239 53.5879 129.224 54.39 129.224 52.8743C129.224 52.3796 129.599 52.1504 130.067 52.1504C130.562 52.1504 131.057 52.4264 131.489 52.9056L132.771 51.6816C132.13 50.9421 131.156 50.4473 130.083 50.4473C128.698 50.4473 127.286 51.2754 127.286 53.0202C127.286 55.9889 131.317 55.2754 131.317 56.8014C131.317 57.2858 130.911 57.6035 130.239 57.6035C129.442 57.6035 128.817 57.1504 128.494 56.4681L126.911 57.4577C127.479 58.5514 128.698 59.4056 130.224 59.4056Z" fill="white"/>
<path d="M38.9655 72.7031C39.6009 72.7031 40.1217 72.3229 40.1217 71.6667C40.1217 70.3958 38.2988 70.7083 38.2988 69.8125C38.2988 69.4427 38.6061 69.2604 38.9551 69.2604C39.2415 69.2604 39.4759 69.3802 39.627 69.5885L39.9395 69.3281C39.7311 69.0677 39.3717 68.8594 38.9395 68.8594C38.3665 68.8594 37.8978 69.2344 37.8978 69.8437C37.8978 71.0469 39.7207 70.75 39.7207 71.6771C39.7207 72.0781 39.3926 72.3021 38.9707 72.3021C38.5488 72.3021 38.2415 72.0729 38.1113 71.7292L37.752 71.9427C37.9447 72.401 38.4134 72.7031 38.9655 72.7031Z" fill="white"/>
<path d="M44.196 72.7031C45.2637 72.7031 46.1178 71.8385 46.1178 70.7812C46.1178 69.7187 45.2637 68.8594 44.196 68.8594C43.1387 68.8594 42.2793 69.7187 42.2793 70.7812C42.2793 71.8385 43.1387 72.7031 44.196 72.7031ZM44.196 72.3021C43.3574 72.3021 42.6751 71.6302 42.6751 70.7812C42.6751 69.9323 43.3574 69.2604 44.196 69.2604C45.0449 69.2604 45.7168 69.9323 45.7168 70.7812C45.7168 71.6302 45.0449 72.3021 44.196 72.3021Z" fill="white"/>
<path d="M50.6318 69.2966V68.9111H48.585V72.6507H48.986V70.9736H50.4183V70.5882H48.986V69.2966H50.6318Z" fill="white"/>
<path d="M54.9414 68.9111H52.4727V69.307H53.5039V72.6507H53.9049V69.307H54.9414V68.9111Z" fill="white"/>
<path d="M61.3392 68.9111L60.3757 71.9841L59.4642 68.9111H58.9069L58.0059 71.9788L57.0527 68.9111H56.6309L57.8027 72.6507H58.2246L59.1882 69.333L60.1673 72.6507H60.584L61.7507 68.9111H61.3392Z" fill="white"/>
<path d="M66.0964 72.6507H66.5339L65.1797 68.9111H64.737L63.3828 72.6507H63.8203L64.1224 71.7757H65.7891L66.0964 72.6507ZM64.2578 71.3955L64.9609 69.3851L65.6589 71.3955H64.2578Z" fill="white"/>
<path d="M70.1709 70.9424C70.6657 70.8747 71.0407 70.4632 71.0407 69.958C71.0407 69.3695 70.5719 68.9111 69.999 68.9111H68.6553V72.6507H69.0563V70.9632H69.7594L70.8219 72.6507H71.2751L70.1709 70.9424ZM69.0563 70.583V69.307H69.973C70.348 69.307 70.6396 69.5726 70.6396 69.9424C70.6396 70.3226 70.3532 70.583 69.973 70.583H69.0563Z" fill="white"/>
<path d="M75.5342 69.2966V68.9111H73.4873V72.6507H75.5342V72.2653H73.8883V70.9736H75.3206V70.5882H73.8883V69.2966H75.5342Z" fill="white"/>
<path d="M82.1481 72.7031C82.7835 72.7031 83.3044 72.3229 83.3044 71.6667C83.3044 70.3958 81.4814 70.7083 81.4814 69.8125C81.4814 69.4427 81.7887 69.2604 82.1377 69.2604C82.4242 69.2604 82.6585 69.3802 82.8096 69.5885L83.1221 69.3281C82.9137 69.0677 82.5544 68.8594 82.1221 68.8594C81.5492 68.8594 81.0804 69.2344 81.0804 69.8437C81.0804 71.0469 82.9033 70.75 82.9033 71.6771C82.9033 72.0781 82.5752 72.3021 82.1533 72.3021C81.7314 72.3021 81.4242 72.0729 81.2939 71.7292L80.9346 71.9427C81.1273 72.401 81.596 72.7031 82.1481 72.7031Z" fill="white"/>
<path d="M87.3786 72.7031C88.4463 72.7031 89.3005 71.8385 89.3005 70.7812C89.3005 69.7187 88.4463 68.8594 87.3786 68.8594C86.3213 68.8594 85.4619 69.7187 85.4619 70.7812C85.4619 71.8385 86.3213 72.7031 87.3786 72.7031ZM87.3786 72.3021C86.54 72.3021 85.8577 71.6302 85.8577 70.7812C85.8577 69.9323 86.54 69.2604 87.3786 69.2604C88.2275 69.2604 88.8994 69.9323 88.8994 70.7812C88.8994 71.6302 88.2275 72.3021 87.3786 72.3021Z" fill="white"/>
<path d="M92.1374 72.2497V68.9111H91.7363V72.6507H93.528V72.2497H92.1374Z" fill="white"/>
<path d="M97.0934 72.7028C97.9111 72.7028 98.5049 72.1559 98.5049 71.4216V68.9111H98.1038V71.3591C98.1038 71.9007 97.6715 72.3018 97.0934 72.3018C96.5153 72.3018 96.0882 71.9007 96.0882 71.3591V68.9111H95.6924V71.4216C95.6924 72.1559 96.2861 72.7028 97.0934 72.7028Z" fill="white"/>
<path d="M103.137 68.9111H100.668V69.307H101.699V72.6507H102.1V69.307H103.137V68.9111Z" fill="white"/>
<path d="M105.348 72.6507H105.749V68.9111H105.348V72.6507Z" fill="white"/>
<path d="M110.124 72.7031C111.191 72.7031 112.046 71.8385 112.046 70.7812C112.046 69.7187 111.191 68.8594 110.124 68.8594C109.066 68.8594 108.207 69.7187 108.207 70.7812C108.207 71.8385 109.066 72.7031 110.124 72.7031ZM110.124 72.3021C109.285 72.3021 108.603 71.6302 108.603 70.7812C108.603 69.9323 109.285 69.2604 110.124 69.2604C110.973 69.2604 111.645 69.9323 111.645 70.7812C111.645 71.6302 110.973 72.3021 110.124 72.3021Z" fill="white"/>
<path d="M117.169 68.9111V71.9841L114.856 68.9111H114.481V72.6507H114.882V69.5778L117.19 72.6507H117.565V68.9111H117.169Z" fill="white"/>
<path d="M121.086 72.7031C121.721 72.7031 122.242 72.3229 122.242 71.6667C122.242 70.3958 120.419 70.7083 120.419 69.8125C120.419 69.4427 120.726 69.2604 121.075 69.2604C121.362 69.2604 121.596 69.3802 121.747 69.5885L122.06 69.3281C121.851 69.0677 121.492 68.8594 121.06 68.8594C120.487 68.8594 120.018 69.2344 120.018 69.8437C120.018 71.0469 121.841 70.75 121.841 71.6771C121.841 72.0781 121.513 72.3021 121.091 72.3021C120.669 72.3021 120.362 72.0729 120.231 71.7292L119.872 71.9427C120.065 72.401 120.534 72.7031 121.086 72.7031Z" fill="white"/>
</svg>
