<svg width="50" height="51" viewBox="0 0 50 51" fill="none" xmlns="http://www.w3.org/2000/svg">
<path id="fb-icon" d="M24.8813 4.19665C36.2977 4.19665 45.6157 13.6012 45.6157 25.1799C45.6157 36.7586 36.3227 46.1631 24.8813 46.1631C13.4399 46.1631 4.14688 36.7586 4.14688 25.1799C4.14688 13.6012 13.4399 4.19665 24.8813 4.19665ZM24.8813 0C11.1416 0 0 11.2753 0 25.1799C0 39.0845 11.1416 50.3345 24.8813 50.3345C38.621 50.3345 49.7626 39.0592 49.7626 25.1546C49.7626 11.2501 38.596 0 24.8813 0ZM20.7344 20.9832H16.5875V25.1799H20.7344V37.7698H26.9547V25.1799H30.7269L31.1016 20.9832H26.9547V19.2389C26.9547 18.2276 27.1546 17.8484 28.1039 17.8484H31.1016V12.6152H26.1304C22.4082 12.6152 20.7594 14.2838 20.7594 17.4439C20.7344 17.4186 20.7344 20.9832 20.7344 20.9832Z" fill="black"/>
</svg>
