<svg width="50" height="51" viewBox="0 0 50 51" fill="none" xmlns="http://www.w3.org/2000/svg">
<path id="ln-icon" d="M24.8813 4.19455C36.2977 4.19455 45.6157 13.5944 45.6157 25.1673C45.6157 36.7402 36.3227 46.14 24.8813 46.14C13.4399 46.14 4.14688 36.7402 4.14688 25.1673C4.14688 13.5944 13.4399 4.19455 24.8813 4.19455ZM24.8813 0C11.1416 0 0 11.2697 0 25.1673C0 39.0648 11.1416 50.3345 24.8813 50.3345C38.621 50.3345 49.7626 39.0648 49.7626 25.1673C49.7626 11.2697 38.596 0 24.8813 0ZM20.7344 16.7782C20.7344 17.9405 19.8101 18.9007 18.661 18.9007C17.5118 18.9007 16.5875 17.9658 16.5875 16.7782C16.5875 15.6158 17.5118 14.6556 18.661 14.6556C19.8101 14.6556 20.7344 15.5906 20.7344 16.7782ZM20.7344 20.9475H16.5875V33.5311H20.7344V20.9475ZM26.9547 20.9475H22.8079V33.5311H26.9547V27.5425C26.9547 23.9291 31.1016 23.6006 31.1016 27.5425V33.5311H35.2485V26.4812C35.2485 19.6082 28.7784 19.8609 26.9547 23.2469V20.9475Z" fill="black"/>
</svg>
