<svg width="83" height="59" viewBox="0 0 83 59" fill="none" xmlns="http://www.w3.org/2000/svg">
<g id="whatsapp-icon">
<g id="Group">
<g id="Group_2">
<g id="Group_3">
<path id="Vector" d="M44.5638 4.90234C31.229 4.90234 20.3801 15.732 20.3801 29.0378C20.3801 33.1616 21.4881 37.2757 23.5885 40.9658L20.0332 53.7706L33.0597 50.2539C36.8559 52.3254 40.8351 53.4238 44.5638 53.4238C57.7541 53.4238 68.9017 42.2569 68.9017 29.0378C68.9017 15.732 57.9853 4.90234 44.5638 4.90234ZM44.5638 49.3771C41.0278 49.3771 37.405 48.298 34.0713 46.265L33.6474 46.0049L25.6986 48.0475L27.8664 40.3588L27.587 39.9156C25.5251 36.6976 24.4267 32.94 24.4267 29.0282C24.4267 17.948 33.4643 8.92974 44.5735 8.92974C55.7597 8.92974 64.8647 17.948 64.8647 29.0282C64.8551 40.2529 55.7596 49.3771 44.5638 49.3771Z" fill="black"/>
<path id="Vector_2" d="M48.8876 35.0883C48.5214 35.5604 47.8952 35.7435 47.3363 35.5508C45.9104 35.0498 41.0447 33.0168 38.3758 27.8814C38.1157 27.3707 38.1831 26.7637 38.5589 26.3302L40.4763 24.1141L38.2699 18.998L36.7668 18.9209C36.7475 18.9209 36.7283 18.9209 36.709 18.9209C36.4585 18.9209 36.2272 19.0076 36.0442 19.1714C35.4275 19.7013 34.3484 20.8093 34.0401 22.216C33.5487 24.4128 34.3677 27.1106 36.3429 29.8084C37.6436 31.5908 41.6228 37.0056 49.1477 39.1253C50.9398 39.636 52.5585 39.4433 53.9555 38.5472C54.8516 37.9788 55.4971 37.0346 55.7284 35.9554L55.9692 34.8282L50.8724 32.4965L48.8876 35.0883Z" fill="black"/>
<path id="Vector_3" d="M44.5632 10.5615C34.3501 10.5615 26.0352 18.8476 26.0352 29.0413C26.0352 32.6351 27.0372 36.0941 28.9353 39.052L29.6097 40.1022L28.0103 45.7868L33.8973 44.2741L34.8993 44.8907C37.9825 46.7695 41.3162 47.7619 44.5535 47.7619C54.8533 47.7619 63.226 39.3603 63.226 29.0413C63.2357 18.8476 54.8629 10.5615 44.5632 10.5615ZM57.5414 35.1595L57.3006 36.2868C56.9826 37.7802 56.0769 39.0905 54.8244 39.8999C53.6682 40.6417 52.3964 41.0175 51.0378 41.0175C50.2863 41.0175 49.5059 40.9019 48.7062 40.6803C40.6417 38.3968 36.4313 32.6544 35.0438 30.7563C32.7796 27.6731 31.8643 24.5129 32.4617 21.844C32.876 19.9941 34.2249 18.597 34.986 17.9419C35.5063 17.489 36.1808 17.2674 36.8648 17.2963L38.3775 17.383C38.9845 17.412 39.5144 17.7877 39.7553 18.3465L41.9617 23.5012C42.2026 24.06 42.0966 24.7152 41.7016 25.1681L39.8806 27.2685C42.193 31.6042 46.2685 33.4348 47.7041 33.9647L49.6119 31.4982C50.0743 30.9105 50.8644 30.7178 51.5389 31.0261L56.655 33.3866C57.3295 33.6853 57.7052 34.4176 57.5414 35.1595Z" fill="black"/>
</g>
</g>
</g>
</g>
</svg>
